# Blender 4.2.3 LTS
# www.blender.org
mtllib Barrel.mtl
o Barrel
v 0.000000 2.361203 -5.509443
v 0.000000 2.361203 -1.269441
v 0.062521 2.355046 -5.509443
v 0.062521 2.355045 -1.269441
v 0.122639 2.336809 -5.509443
v 0.122639 2.336809 -1.269441
v 0.178045 2.307194 -5.509443
v 0.178045 2.307194 -1.269441
v 0.226608 2.267339 -5.509443
v 0.226608 2.267339 -1.269441
v 0.266463 2.218776 -5.509443
v 0.266463 2.218776 -1.269441
v 0.296078 2.163370 -5.509443
v 0.296078 2.163370 -1.269441
v 0.314314 2.103252 -5.509443
v 0.314314 2.103252 -1.269441
v 0.320472 2.040731 -5.509443
v 0.320472 2.040731 -1.269441
v 0.314314 1.978210 -5.509443
v 0.314314 1.978210 -1.269441
v 0.296078 1.918092 -5.509443
v 0.296078 1.918091 -1.269441
v 0.266463 1.862686 -5.509443
v 0.266463 1.862686 -1.269441
v 0.226608 1.814123 -5.509443
v 0.226608 1.814123 -1.269441
v 0.178045 1.774268 -5.509443
v 0.178045 1.774268 -1.269441
v 0.122639 1.744653 -5.509443
v 0.122639 1.744653 -1.269441
v 0.062521 1.726417 -5.509443
v 0.062521 1.726416 -1.269441
v 0.000000 1.720259 -5.509443
v 0.000000 1.720259 -1.269441
v -0.062521 1.726417 -5.509443
v -0.062521 1.726416 -1.269441
v -0.122639 1.744653 -5.509443
v -0.122639 1.744653 -1.269441
v -0.178045 1.774268 -5.509443
v -0.178045 1.774268 -1.269441
v -0.226608 1.814123 -5.509443
v -0.226608 1.814123 -1.269441
v -0.266463 1.862686 -5.509443
v -0.266463 1.862686 -1.269441
v -0.296078 1.918092 -5.509443
v -0.296078 1.918091 -1.269441
v -0.314314 1.978210 -5.509443
v -0.314314 1.978210 -1.269441
v -0.320472 2.040731 -5.509443
v -0.320472 2.040731 -1.269441
v -0.314314 2.103252 -5.509443
v -0.314314 2.103252 -1.269441
v -0.296078 2.163370 -5.509443
v -0.296078 2.163370 -1.269441
v -0.266463 2.218776 -5.509443
v -0.266463 2.218776 -1.269441
v -0.226608 2.267339 -5.509443
v -0.226608 2.267339 -1.269441
v -0.178045 2.307194 -5.509443
v -0.178045 2.307194 -1.269441
v -0.122639 2.336809 -5.509443
v -0.122639 2.336809 -1.269441
v -0.062521 2.355046 -5.509443
v -0.062521 2.355045 -1.269441
v -0.000000 2.430731 -4.653304
v 0.076085 2.423237 -4.653304
v 0.149247 2.401044 -4.653304
v 0.216672 2.365004 -4.653304
v 0.275772 2.316503 -4.653304
v 0.324273 2.257404 -4.653304
v 0.360313 2.189978 -4.653304
v 0.382506 2.116816 -4.653304
v 0.390000 2.040731 -4.653304
v 0.382506 1.964646 -4.653304
v 0.360313 1.891484 -4.653304
v 0.324273 1.824059 -4.653304
v 0.275772 1.764959 -4.653304
v 0.216672 1.716458 -4.653304
v 0.149247 1.680418 -4.653304
v 0.076085 1.658225 -4.653304
v -0.000000 1.650731 -4.653304
v -0.076085 1.658225 -4.653304
v -0.149247 1.680418 -4.653304
v -0.216672 1.716458 -4.653304
v -0.275772 1.764959 -4.653304
v -0.324273 1.824059 -4.653304
v -0.360313 1.891484 -4.653304
v -0.382506 1.964646 -4.653304
v -0.390000 2.040731 -4.653304
v -0.382506 2.116816 -4.653304
v -0.360313 2.189978 -4.653304
v -0.324273 2.257404 -4.653304
v -0.275772 2.316503 -4.653304
v -0.216672 2.365004 -4.653304
v -0.149247 2.401044 -4.653304
v -0.076085 2.423237 -4.653304
v 0.000000 2.532418 -5.509443
v 0.095923 2.522970 -5.509443
v 0.095923 2.522970 -4.653304
v 0.188160 2.494990 -5.509443
v 0.188160 2.494990 -4.653304
v 0.273167 2.449554 -5.509443
v 0.273167 2.449553 -4.653304
v 0.347675 2.388406 -5.509443
v 0.347675 2.388406 -4.653304
v 0.408823 2.313898 -5.509443
v 0.408823 2.313898 -4.653304
v 0.454259 2.228891 -5.509443
v 0.454259 2.228891 -4.653304
v 0.482239 2.136654 -5.509443
v 0.482239 2.136654 -4.653304
v 0.491687 2.040731 -5.509443
v 0.491687 2.040731 -4.653304
v 0.482239 1.944808 -5.509443
v 0.482239 1.944808 -4.653304
v 0.454259 1.852571 -5.509443
v 0.454259 1.852571 -4.653304
v 0.408823 1.767565 -5.509443
v 0.408823 1.767565 -4.653304
v 0.347675 1.693056 -5.509443
v 0.347675 1.693056 -4.653304
v 0.273167 1.631908 -5.509443
v 0.273167 1.631908 -4.653304
v 0.188160 1.586472 -5.509443
v 0.188160 1.586472 -4.653304
v 0.095923 1.558492 -5.509443
v 0.095923 1.558492 -4.653304
v 0.000000 1.549044 -5.509443
v 0.000000 1.549044 -4.653304
v -0.095923 1.558492 -5.509443
v -0.095923 1.558492 -4.653304
v -0.188160 1.586472 -5.509443
v -0.188160 1.586472 -4.653304
v -0.273167 1.631908 -5.509443
v -0.273167 1.631908 -4.653304
v -0.347675 1.693056 -5.509443
v -0.347675 1.693056 -4.653304
v -0.408823 1.767565 -5.509443
v -0.408823 1.767565 -4.653304
v -0.454259 1.852571 -5.509443
v -0.454259 1.852571 -4.653304
v -0.482239 1.944808 -5.509443
v -0.482239 1.944808 -4.653304
v -0.491687 2.040731 -5.509443
v -0.491687 2.040731 -4.653304
v -0.482239 2.136654 -5.509443
v -0.482239 2.136654 -4.653304
v -0.454259 2.228891 -5.509443
v -0.454259 2.228891 -4.653304
v -0.408823 2.313898 -5.509443
v -0.408823 2.313898 -4.653304
v -0.347675 2.388406 -5.509443
v -0.347675 2.388406 -4.653304
v -0.273167 2.449554 -5.509443
v -0.273167 2.449553 -4.653304
v -0.188160 2.494990 -5.509443
v -0.188160 2.494990 -4.653304
v -0.095923 2.522970 -5.509443
v -0.095923 2.522970 -4.653304
v 0.000000 2.532418 -4.653304
v 0.000000 2.361203 -4.753676
v 0.062521 2.355045 -4.753676
v 0.122639 2.336809 -4.753676
v 0.178045 2.307194 -4.753676
v 0.226608 2.267339 -4.753676
v 0.266463 2.218776 -4.753676
v 0.296078 2.163370 -4.753676
v 0.314314 2.103252 -4.753676
v 0.320472 2.040731 -4.753676
v 0.314314 1.978210 -4.753676
v 0.296078 1.918092 -4.753676
v 0.266463 1.862686 -4.753676
v 0.226608 1.814123 -4.753676
v 0.178045 1.774268 -4.753676
v 0.122639 1.744653 -4.753676
v 0.062521 1.726417 -4.753676
v 0.000000 1.720259 -4.753676
v -0.062521 1.726417 -4.753676
v -0.122639 1.744653 -4.753676
v -0.178045 1.774268 -4.753676
v -0.226608 1.814123 -4.753676
v -0.266463 1.862686 -4.753676
v -0.296078 1.918092 -4.753676
v -0.314314 1.978210 -4.753676
v -0.320472 2.040731 -4.753676
v -0.314314 2.103252 -4.753676
v -0.296078 2.163370 -4.753676
v -0.266463 2.218776 -4.753676
v -0.226608 2.267339 -4.753676
v -0.178045 2.307194 -4.753676
v -0.122639 2.336809 -4.753676
v -0.062521 2.355045 -4.753676
vn 0.0980 0.9950 0.0204
vn 0.2902 0.9567 0.0204
vn 0.4713 0.8817 0.0204
vn 0.6343 0.7728 0.0204
vn 0.7728 0.6343 0.0204
vn 0.8817 0.4713 0.0204
vn 0.9567 0.2902 0.0204
vn 0.9950 0.0980 0.0204
vn 0.9950 -0.0980 0.0204
vn 0.9567 -0.2902 0.0204
vn 0.8817 -0.4713 0.0204
vn 0.7728 -0.6343 0.0204
vn 0.6343 -0.7728 0.0204
vn 0.4713 -0.8817 0.0204
vn 0.2902 -0.9567 0.0204
vn 0.0980 -0.9950 0.0204
vn -0.0980 -0.9950 0.0204
vn -0.2902 -0.9567 0.0204
vn -0.4713 -0.8817 0.0204
vn -0.6343 -0.7728 0.0204
vn -0.7728 -0.6343 0.0204
vn -0.8817 -0.4713 0.0204
vn -0.9567 -0.2902 0.0204
vn -0.9950 -0.0980 0.0204
vn -0.9950 0.0980 0.0204
vn -0.9567 0.2902 0.0204
vn -0.8817 0.4713 0.0204
vn -0.7728 0.6343 0.0204
vn -0.6343 0.7728 0.0204
vn -0.4713 0.8817 0.0204
vn -0.0000 -0.0000 1.0000
vn -0.2902 0.9567 0.0204
vn -0.0980 0.9950 0.0204
vn 0.9952 -0.0980 -0.0000
vn -0.0000 -0.0000 -1.0000
vn -0.0980 0.9952 -0.0000
vn -0.2903 0.9569 -0.0000
vn -0.4714 0.8819 -0.0000
vn -0.6344 0.7730 -0.0000
vn -0.7730 0.6344 -0.0000
vn -0.8819 0.4714 -0.0000
vn -0.9569 0.2903 -0.0000
vn -0.9952 0.0980 -0.0000
vn -0.9952 -0.0980 -0.0000
vn -0.9569 -0.2903 -0.0000
vn -0.8819 -0.4714 -0.0000
vn -0.7730 -0.6344 -0.0000
vn -0.6344 -0.7730 -0.0000
vn -0.4714 -0.8819 -0.0000
vn -0.2903 -0.9569 -0.0000
vn -0.0980 -0.9952 -0.0000
vn 0.0980 -0.9952 -0.0000
vn 0.2903 -0.9569 -0.0000
vn 0.4714 -0.8819 -0.0000
vn 0.6344 -0.7730 -0.0000
vn 0.7730 -0.6344 -0.0000
vn 0.8819 -0.4714 -0.0000
vn 0.9569 -0.2903 -0.0000
vn 0.9952 0.0980 -0.0000
vn 0.9569 0.2903 -0.0000
vn 0.8819 0.4714 -0.0000
vn 0.7730 0.6344 -0.0000
vn 0.6344 0.7730 -0.0000
vn 0.4714 0.8819 -0.0000
vn 0.2903 0.9569 -0.0000
vn 0.0980 0.9952 -0.0000
vt 1.000000 0.554738
vt 1.000000 1.000000
vt 0.968750 1.000000
vt 0.968750 0.554738
vt 0.937500 1.000000
vt 0.937500 0.554738
vt 0.906250 1.000000
vt 0.906250 0.554738
vt 0.875000 1.000000
vt 0.875000 0.554738
vt 0.843750 1.000000
vt 0.843750 0.554738
vt 0.812500 1.000000
vt 0.812500 0.554738
vt 0.781250 1.000000
vt 0.781250 0.554738
vt 0.750000 1.000000
vt 0.750000 0.554738
vt 0.718750 1.000000
vt 0.718750 0.554738
vt 0.687500 1.000000
vt 0.687500 0.554738
vt 0.656250 1.000000
vt 0.656250 0.554738
vt 0.625000 1.000000
vt 0.625000 0.554738
vt 0.593750 1.000000
vt 0.593750 0.554738
vt 0.562500 1.000000
vt 0.562500 0.554738
vt 0.531250 1.000000
vt 0.531250 0.554738
vt 0.500000 1.000000
vt 0.500000 0.554738
vt 0.468750 1.000000
vt 0.468750 0.554738
vt 0.437500 1.000000
vt 0.437500 0.554738
vt 0.406250 1.000000
vt 0.406250 0.554738
vt 0.375000 1.000000
vt 0.375000 0.554738
vt 0.343750 1.000000
vt 0.343750 0.554738
vt 0.312500 1.000000
vt 0.312500 0.554738
vt 0.281250 1.000000
vt 0.281250 0.554738
vt 0.250000 1.000000
vt 0.250000 0.554738
vt 0.218750 1.000000
vt 0.218750 0.554738
vt 0.187500 1.000000
vt 0.187500 0.554738
vt 0.156250 1.000000
vt 0.156250 0.554738
vt 0.125000 1.000000
vt 0.125000 0.554738
vt 0.093750 1.000000
vt 0.093750 0.554738
vt 0.062500 1.000000
vt 0.062500 0.554738
vt 0.296822 0.485388
vt 0.250000 0.490000
vt 0.203178 0.485388
vt 0.158156 0.471731
vt 0.116663 0.449553
vt 0.080294 0.419706
vt 0.050447 0.383337
vt 0.028269 0.341844
vt 0.014612 0.296822
vt 0.010000 0.250000
vt 0.014612 0.203178
vt 0.028269 0.158156
vt 0.050447 0.116663
vt 0.080294 0.080294
vt 0.116663 0.050447
vt 0.158156 0.028269
vt 0.203178 0.014612
vt 0.250000 0.010000
vt 0.296822 0.014612
vt 0.341844 0.028269
vt 0.383337 0.050447
vt 0.419706 0.080294
vt 0.449553 0.116663
vt 0.471731 0.158156
vt 0.485388 0.203178
vt 0.490000 0.250000
vt 0.485388 0.296822
vt 0.471731 0.341844
vt 0.449553 0.383337
vt 0.419706 0.419706
vt 0.383337 0.449553
vt 0.341844 0.471731
vt 0.031250 1.000000
vt 0.031250 0.554738
vt 0.000000 1.000000
vt 0.000000 0.554738
vt 0.510000 0.250000
vt 0.514612 0.296822
vt 0.580294 0.080294
vt 0.616663 0.050447
vt 0.949553 0.116663
vt 0.971731 0.158156
vt 0.841844 0.471731
vt 0.796822 0.485388
vt 0.580294 0.419706
vt 0.550447 0.383337
vt 0.658156 0.028269
vt 0.985388 0.203178
vt 0.528269 0.341844
vt 0.750000 0.490000
vt 0.703178 0.014612
vt 0.990000 0.250000
vt 0.750000 0.010000
vt 0.985388 0.296822
vt 0.031250 0.500000
vt 0.000000 0.500000
vt 0.062500 0.500000
vt 0.093750 0.500000
vt 0.125000 0.500000
vt 0.156250 0.500000
vt 0.187500 0.500000
vt 0.218750 0.500000
vt 0.250000 0.500000
vt 0.281250 0.500000
vt 0.312500 0.500000
vt 0.343750 0.500000
vt 0.375000 0.500000
vt 0.406250 0.500000
vt 0.437500 0.500000
vt 0.468750 0.500000
vt 0.500000 0.500000
vt 0.531250 0.500000
vt 0.562500 0.500000
vt 0.593750 0.500000
vt 0.625000 0.500000
vt 0.656250 0.500000
vt 0.687500 0.500000
vt 0.718750 0.500000
vt 0.750000 0.500000
vt 0.781250 0.500000
vt 0.812500 0.500000
vt 0.843750 0.500000
vt 0.875000 0.500000
vt 0.906250 0.500000
vt 0.937500 0.500000
vt 0.968750 0.500000
vt 1.000000 0.500000
vt 0.616663 0.449553
vt 0.883337 0.449553
vt 0.919706 0.080294
vt 0.550447 0.116663
vt 0.658156 0.471731
vt 0.919706 0.419706
vt 0.883337 0.050447
vt 0.528269 0.158156
vt 0.703178 0.485388
vt 0.949553 0.383337
vt 0.841844 0.028269
vt 0.514612 0.203178
vt 0.971731 0.341844
vt 0.796822 0.014612
s 0
usemtl Tank_Body
f 65/1/1 2/2/1 4/3/1 66/4/1
f 66/4/2 4/3/2 6/5/2 67/6/2
f 67/6/3 6/5/3 8/7/3 68/8/3
f 68/8/4 8/7/4 10/9/4 69/10/4
f 69/10/5 10/9/5 12/11/5 70/12/5
f 70/12/6 12/11/6 14/13/6 71/14/6
f 71/14/7 14/13/7 16/15/7 72/16/7
f 72/16/8 16/15/8 18/17/8 73/18/8
f 73/18/9 18/17/9 20/19/9 74/20/9
f 74/20/10 20/19/10 22/21/10 75/22/10
f 75/22/11 22/21/11 24/23/11 76/24/11
f 76/24/12 24/23/12 26/25/12 77/26/12
f 77/26/13 26/25/13 28/27/13 78/28/13
f 78/28/14 28/27/14 30/29/14 79/30/14
f 79/30/15 30/29/15 32/31/15 80/32/15
f 80/32/16 32/31/16 34/33/16 81/34/16
f 81/34/17 34/33/17 36/35/17 82/36/17
f 82/36/18 36/35/18 38/37/18 83/38/18
f 83/38/19 38/37/19 40/39/19 84/40/19
f 84/40/20 40/39/20 42/41/20 85/42/20
f 85/42/21 42/41/21 44/43/21 86/44/21
f 86/44/22 44/43/22 46/45/22 87/46/22
f 87/46/23 46/45/23 48/47/23 88/48/23
f 88/48/24 48/47/24 50/49/24 89/50/24
f 89/50/25 50/49/25 52/51/25 90/52/25
f 90/52/26 52/51/26 54/53/26 91/54/26
f 91/54/27 54/53/27 56/55/27 92/56/27
f 92/56/28 56/55/28 58/57/28 93/58/28
f 93/58/29 58/57/29 60/59/29 94/60/29
f 94/60/30 60/59/30 62/61/30 95/62/30
f 4/63/31 2/64/31 64/65/31 62/66/31 60/67/31 58/68/31 56/69/31 54/70/31 52/71/31 50/72/31 48/73/31 46/74/31 44/75/31 42/76/31 40/77/31 38/78/31 36/79/31 34/80/31 32/81/31 30/82/31 28/83/31 26/84/31 24/85/31 22/86/31 20/87/31 18/88/31 16/89/31 14/90/31 12/91/31 10/92/31 8/93/31 6/94/31
f 95/62/32 62/61/32 64/95/32 96/96/32
f 96/96/33 64/95/33 2/97/33 65/98/33
f 87/46/31 88/48/31 143/48/31 141/46/31
f 41/101/35 39/102/35 134/102/35 136/101/35
f 88/48/31 89/50/31 145/50/31 143/48/31
f 23/103/35 21/104/35 116/104/35 118/103/35
f 89/50/31 90/52/31 147/52/31 145/50/31
f 5/105/35 3/106/35 98/106/35 100/105/35
f 57/107/35 55/108/35 150/108/35 152/107/35
f 90/52/31 91/54/31 149/54/31 147/52/31
f 39/102/35 37/109/35 132/109/35 134/102/35
f 91/54/31 92/56/31 151/56/31 149/54/31
f 21/104/35 19/110/35 114/110/35 116/104/35
f 65/1/31 66/4/31 99/4/31 160/1/31
f 92/56/31 93/58/31 153/58/31 151/56/31
f 66/4/31 67/6/31 101/6/31 99/4/31
f 55/108/35 53/111/35 148/111/35 150/108/35
f 93/58/31 94/60/31 155/60/31 153/58/31
f 3/106/35 1/112/35 97/112/35 98/106/35
f 67/6/31 68/8/31 103/8/31 101/6/31
f 37/109/35 35/113/35 130/113/35 132/109/35
f 94/60/31 95/62/31 157/62/31 155/60/31
f 19/110/35 17/114/35 112/114/35 114/110/35
f 68/8/31 69/10/31 105/10/31 103/8/31
f 95/62/31 96/96/31 159/96/31 157/62/31
f 69/10/31 70/12/31 107/12/31 105/10/31
f 53/111/35 51/100/35 146/100/35 148/111/35
f 96/96/31 65/98/31 160/98/31 159/96/31
f 70/12/31 71/14/31 109/14/31 107/12/31
f 35/113/35 33/115/35 128/115/35 130/113/35
f 17/114/35 15/116/35 110/116/35 112/114/35
f 71/14/31 72/16/31 111/16/31 109/14/31
f 72/16/31 73/18/31 113/18/31 111/16/31
f 51/100/35 49/99/35 144/99/35 146/100/35
f 158/117/36 159/96/36 160/98/36 97/118/36
f 156/119/37 157/62/37 159/96/37 158/117/37
f 154/120/38 155/60/38 157/62/38 156/119/38
f 152/121/39 153/58/39 155/60/39 154/120/39
f 150/122/40 151/56/40 153/58/40 152/121/40
f 148/123/41 149/54/41 151/56/41 150/122/41
f 146/124/42 147/52/42 149/54/42 148/123/42
f 144/125/43 145/50/43 147/52/43 146/124/43
f 142/126/44 143/48/44 145/50/44 144/125/44
f 140/127/45 141/46/45 143/48/45 142/126/45
f 138/128/46 139/44/46 141/46/46 140/127/46
f 136/129/47 137/42/47 139/44/47 138/128/47
f 134/130/48 135/40/48 137/42/48 136/129/48
f 132/131/49 133/38/49 135/40/49 134/130/49
f 130/132/50 131/36/50 133/38/50 132/131/50
f 128/133/51 129/34/51 131/36/51 130/132/51
f 126/134/52 127/32/52 129/34/52 128/133/52
f 124/135/53 125/30/53 127/32/53 126/134/53
f 122/136/54 123/28/54 125/30/54 124/135/54
f 120/137/55 121/26/55 123/28/55 122/136/55
f 118/138/56 119/24/56 121/26/56 120/137/56
f 116/139/57 117/22/57 119/24/57 118/138/57
f 114/140/58 115/20/58 117/22/58 116/139/58
f 112/141/34 113/18/34 115/20/34 114/140/34
f 110/142/59 111/16/59 113/18/59 112/141/59
f 108/143/60 109/14/60 111/16/60 110/142/60
f 106/144/61 107/12/61 109/14/61 108/143/61
f 104/145/62 105/10/62 107/12/62 106/144/62
f 102/146/63 103/8/63 105/10/63 104/145/63
f 100/147/64 101/6/64 103/8/64 102/146/64
f 98/148/65 99/4/65 101/6/65 100/147/65
f 97/149/66 160/1/66 99/4/66 98/148/66
f 59/150/35 57/107/35 152/107/35 154/150/35
f 86/44/31 87/46/31 141/46/31 139/44/31
f 7/151/35 5/105/35 100/105/35 102/151/35
f 25/152/35 23/103/35 118/103/35 120/152/35
f 85/42/31 86/44/31 139/44/31 137/42/31
f 43/153/35 41/101/35 136/101/35 138/153/35
f 84/40/31 85/42/31 137/42/31 135/40/31
f 61/154/35 59/150/35 154/150/35 156/154/35
f 9/155/35 7/151/35 102/151/35 104/155/35
f 83/38/31 84/40/31 135/40/31 133/38/31
f 27/156/35 25/152/35 120/152/35 122/156/35
f 82/36/31 83/38/31 133/38/31 131/36/31
f 45/157/35 43/153/35 138/153/35 140/157/35
f 81/34/31 82/36/31 131/36/31 129/34/31
f 63/158/35 61/154/35 156/154/35 158/158/35
f 11/159/35 9/155/35 104/155/35 106/159/35
f 80/32/31 81/34/31 129/34/31 127/32/31
f 29/160/35 27/156/35 122/156/35 124/160/35
f 79/30/31 80/32/31 127/32/31 125/30/31
f 47/161/35 45/157/35 140/157/35 142/161/35
f 78/28/31 79/30/31 125/30/31 123/28/31
f 1/112/35 63/158/35 158/158/35 97/112/35
f 77/26/31 78/28/31 123/28/31 121/26/31
f 13/162/35 11/159/35 106/159/35 108/162/35
f 31/163/35 29/160/35 124/160/35 126/163/35
f 76/24/31 77/26/31 121/26/31 119/24/31
f 49/99/35 47/161/35 142/161/35 144/99/35
f 75/22/31 76/24/31 119/24/31 117/22/31
f 74/20/31 75/22/31 117/22/31 115/20/31
f 15/116/35 13/162/35 108/162/35 110/116/35
f 33/115/35 31/163/35 126/163/35 128/115/35
f 73/18/31 74/20/31 115/20/31 113/18/31
usemtl Tank2
f 49/99/34 51/100/34 186/100/34 185/99/34
f 161/112/35 162/106/35 163/105/35 164/151/35 165/155/35 166/159/35 167/162/35 168/116/35 169/114/35 170/110/35 171/104/35 172/103/35 173/152/35 174/156/35 175/160/35 176/163/35 177/115/35 178/113/35 179/109/35 180/102/35 181/101/35 182/153/35 183/157/35 184/161/35 185/99/35 186/100/35 187/111/35 188/108/35 189/107/35 190/150/35 191/154/35 192/158/35
f 5/105/49 7/151/49 164/151/49 163/105/49
f 23/103/40 25/152/40 173/152/40 172/103/40
f 41/101/62 43/153/62 182/153/62 181/101/62
f 59/150/54 61/154/54 191/154/54 190/150/54
f 15/116/44 17/114/44 169/114/44 168/116/44
f 33/115/66 35/113/66 178/113/66 177/115/66
f 51/100/58 53/111/58 187/111/58 186/100/58
f 7/151/48 9/155/48 165/155/48 164/151/48
f 25/152/39 27/156/39 174/156/39 173/152/39
f 43/153/61 45/157/61 183/157/61 182/153/61
f 61/154/53 63/158/53 192/158/53 191/154/53
f 17/114/43 19/110/43 170/110/43 169/114/43
f 35/113/65 37/109/65 179/109/65 178/113/65
f 53/111/57 55/108/57 188/108/57 187/111/57
f 9/155/47 11/159/47 166/159/47 165/155/47
f 27/156/38 29/160/38 175/160/38 174/156/38
f 45/157/60 47/161/60 184/161/60 183/157/60
f 1/112/51 3/106/51 162/106/51 161/112/51
f 63/158/52 1/112/52 161/112/52 192/158/52
f 19/110/42 21/104/42 171/104/42 170/110/42
f 37/109/64 39/102/64 180/102/64 179/109/64
f 55/108/56 57/107/56 189/107/56 188/108/56
f 11/159/46 13/162/46 167/162/46 166/159/46
f 29/160/37 31/163/37 176/163/37 175/160/37
f 47/161/59 49/99/59 185/99/59 184/161/59
f 3/106/50 5/105/50 163/105/50 162/106/50
f 21/104/41 23/103/41 172/103/41 171/104/41
f 39/102/63 41/101/63 181/101/63 180/102/63
f 57/107/55 59/150/55 190/150/55 189/107/55
f 13/162/45 15/116/45 168/116/45 167/162/45
f 31/163/36 33/115/36 177/115/36 176/163/36
