# Blender 4.2.3 LTS
# www.blender.org
mtllib Tank.mtl
o Tank
v -1.813016 0.908856 3.481179
v -2.719225 0.938610 3.481179
v -1.847882 0.772981 -4.603734
v -2.719225 0.789205 -4.603734
v -2.719225 0.686377 3.481179
v -2.719225 0.536972 -4.603734
v -1.847882 1.127610 -0.561277
v -2.719225 1.039946 -0.561277
v -2.719225 0.787713 -0.561277
v 0.000000 -0.271103 -4.603734
v 0.000000 0.772981 -4.603734
v 0.000000 -0.126097 3.481179
v 0.000000 0.908856 3.481179
v 0.000000 0.686377 3.623418
v 0.000000 0.536972 -5.158793
v 0.000000 1.127610 -0.561277
v 0.000000 -0.679922 -0.561277
v -1.847882 -0.567022 -0.561277
v -1.847882 -0.126097 3.481179
v -1.847882 0.536972 -4.991643
v -1.847882 -0.109705 -4.603734
v -1.847882 0.686377 3.623418
v -1.847882 0.787713 -0.561277
v -1.847882 1.127610 -2.582506
v -2.719225 1.039946 -2.582506
v -2.719225 0.787713 -2.582506
v 0.000000 -0.673244 -2.582506
v 0.000000 1.127610 -2.286106
v -1.847882 0.787713 -2.582506
v -1.847882 -0.560344 -2.582506
v -2.719225 1.039946 1.459951
v -2.719225 0.787713 1.459951
v 0.000000 1.127610 1.459951
v 0.000000 -0.600026 1.459951
v -1.847882 -0.487126 1.459951
v -1.847882 0.787713 1.459951
v -1.847882 1.127610 1.459951
v -2.719225 0.932012 -3.593120
v -2.719225 0.679779 -3.593120
v -1.847882 0.679779 -3.593120
v -1.847882 1.019676 -3.593120
v 0.000000 -0.610446 -3.593120
v 0.000000 1.019676 -3.593120
v -1.847882 -0.497546 -3.593120
v -1.847882 1.245200 -2.587929
v -1.847882 1.245200 -0.566701
v -2.719225 1.049602 -3.598543
v -2.719225 0.906795 -4.609157
v -1.847882 1.143864 3.475756
v -2.719225 1.056200 3.475756
v -1.847882 0.994460 -4.609157
v -2.719225 1.157536 1.454528
v -2.719225 1.157536 -0.566701
v -1.847882 1.245200 1.454528
v -1.847882 1.137266 -3.598543
v -2.719225 1.157536 -2.587929
v 0.000000 1.127610 2.470565
v 0.000000 -0.522925 2.895154
v -1.847882 -0.410025 2.895154
v -1.847882 1.127610 2.470565
v -2.719225 1.039946 2.470565
v -2.719225 0.787713 2.470565
v -1.847882 0.787713 2.470565
v -1.847882 1.245200 2.465142
v -2.719225 1.157536 2.465142
v 0.000000 0.379550 3.623418
v -1.847882 0.304848 -4.991643
v -1.847882 0.379550 3.623418
v -1.847882 0.430218 -0.561277
v 0.000000 0.304848 -4.991643
v -1.847882 0.430218 -2.582506
v -1.847882 0.430218 1.459951
v -1.847882 0.376251 -3.593120
v -1.847882 0.430218 2.810192
v 0.000000 1.096584 -1.503467
v 0.000000 1.701136 -1.503467
v 0.000000 1.096584 1.503467
v 0.000000 1.701136 1.503467
v -0.575352 1.096584 1.389022
v -0.575352 1.701136 1.389022
v -1.063112 1.096584 1.063112
v -1.063112 1.701136 1.063112
v -1.389022 1.096584 0.575352
v -1.389022 1.701136 0.575352
v -1.503467 1.096584 0.000000
v -1.503467 1.701136 0.000000
v -1.389022 1.096584 -0.575352
v -1.389022 1.701136 -0.575352
v -1.063112 1.096584 -1.063112
v -1.063112 1.701136 -1.063112
v -0.575352 1.096584 -1.389022
v -0.575352 1.701136 -1.389022
v -0.636097 -0.271103 -4.603734
v -0.923941 0.908856 3.481179
v -0.923941 0.772981 -4.603734
v -0.923941 -0.679922 -0.561277
v -0.923941 1.127610 -0.561277
v -0.923941 0.686377 3.623418
v -0.636097 0.536972 -4.991643
v -0.923941 -0.126097 3.481179
v -0.923941 -0.673244 -2.582506
v -1.148303 1.127610 -2.286106
v -0.923941 -0.600026 1.459951
v -0.923941 1.127610 1.459951
v -1.041463 1.019676 -3.593120
v -0.923941 -0.610446 -3.593120
v -0.923941 -0.522925 2.895154
v -0.923941 1.127610 2.470565
v -0.636097 0.304848 -4.991643
v -0.923941 0.379550 3.623418
v -2.798816 1.039946 1.459951
v -2.798816 1.039946 -0.561277
v -2.798816 0.787713 1.459951
v -2.798816 0.787713 -0.561277
v -2.798816 1.039946 -2.582506
v -2.798816 0.787713 -2.582506
v -2.798816 1.039946 2.470565
v -2.798816 0.787713 2.470565
v -2.798816 0.932012 -3.593120
v -2.798816 0.679779 -3.593120
v -2.719225 -0.011313 1.479947
v -2.719225 -0.011313 -0.541281
v -2.719225 -0.011313 -2.562510
v -2.719225 0.254353 2.490561
v -2.719225 0.204853 -3.573124
v -2.798816 -0.011313 1.479947
v -2.798816 -0.011313 -0.541281
v -2.798816 -0.011313 -2.562510
v -2.798816 0.254353 2.490561
v -2.798816 0.204853 -3.573124
v -2.718920 0.560236 -5.140075
v -2.718920 0.308003 -5.013132
v -1.847577 0.544011 -5.140075
v -2.718920 0.677826 -5.018555
v -1.847577 0.765490 -5.018555
v -2.719363 0.621074 3.756674
v -2.719363 0.873307 3.835983
v -1.813153 0.843553 3.835983
v -1.848020 1.078561 3.751251
v -1.848020 0.621074 3.756674
v -2.719363 0.990897 3.751251
v -0.485919 0.906104 -4.636971
v 0.000000 0.906104 -4.636971
v 0.000000 0.670096 -5.024880
v -0.247470 0.670097 -5.060251
v 0.000000 1.152800 -3.626356
v 0.000000 1.260734 -2.615742
v -0.923941 1.260734 -2.615742
v -0.684928 1.152800 -3.626356
v 1.813016 0.908856 3.481179
v 2.719225 0.938610 3.481179
v 1.847882 0.772981 -4.603734
v 2.719225 0.789205 -4.603734
v 2.719225 0.686377 3.481179
v 2.719225 0.536972 -4.603734
v 1.847882 1.127610 -0.561277
v 2.719225 1.039946 -0.561277
v 2.719225 0.787713 -0.561277
v 1.847882 -0.567022 -0.561277
v 1.847882 -0.126097 3.481179
v 1.847882 0.536972 -4.991643
v 1.847882 -0.109705 -4.603734
v 1.847882 0.686377 3.623418
v 1.847882 0.787713 -0.561277
v 1.847882 1.127610 -2.582506
v 2.719225 1.039946 -2.582506
v 2.719225 0.787713 -2.582506
v 1.847882 0.787713 -2.582506
v 1.847882 -0.560344 -2.582506
v 2.719225 1.039946 1.459951
v 2.719225 0.787713 1.459951
v 1.847882 -0.487126 1.459951
v 1.847882 0.787713 1.459951
v 1.847882 1.127610 1.459951
v 2.719225 0.932012 -3.593120
v 2.719225 0.679779 -3.593120
v 1.847882 0.679779 -3.593120
v 1.847882 1.019676 -3.593120
v 1.847882 -0.497546 -3.593120
v 1.847882 1.245200 -2.587929
v 1.847882 1.245200 -0.566701
v 2.719225 1.049602 -3.598543
v 2.719225 0.906795 -4.609157
v 1.847882 1.143864 3.475756
v 2.719225 1.056200 3.475756
v 1.847882 0.994460 -4.609157
v 2.719225 1.157536 1.454528
v 2.719225 1.157536 -0.566701
v 1.847882 1.245200 1.454528
v 1.847882 1.137266 -3.598543
v 2.719225 1.157536 -2.587929
v 1.847882 -0.410025 2.895154
v 1.847882 1.127610 2.470565
v 2.719225 1.039946 2.470565
v 2.719225 0.787713 2.470565
v 1.847882 0.787713 2.470565
v 1.847882 1.245200 2.465142
v 2.719225 1.157536 2.465142
v 1.847882 0.304848 -4.991643
v 1.847882 0.379550 3.623418
v 1.847882 0.430218 -0.561277
v 1.847882 0.430218 -2.582506
v 1.847882 0.430218 1.459951
v 1.847882 0.376251 -3.593120
v 1.847882 0.430218 2.810192
v 0.575352 1.096584 1.389022
v 0.575352 1.701136 1.389022
v 1.063112 1.096584 1.063112
v 1.063112 1.701136 1.063112
v 1.389022 1.096584 0.575352
v 1.389022 1.701136 0.575352
v 1.503467 1.096584 0.000000
v 1.503467 1.701136 0.000000
v 1.389022 1.096584 -0.575352
v 1.389022 1.701136 -0.575352
v 1.063112 1.096584 -1.063112
v 1.063112 1.701136 -1.063112
v 0.575352 1.096584 -1.389022
v 0.575352 1.701136 -1.389022
v 0.636097 -0.271103 -4.603734
v 0.923941 0.908856 3.481179
v 0.923941 0.772981 -4.603734
v 0.923941 -0.679922 -0.561277
v 0.923941 1.127610 -0.561277
v 0.923941 0.686377 3.623418
v 0.636097 0.536972 -4.991643
v 0.923941 -0.126097 3.481179
v 0.923941 -0.673244 -2.582506
v 1.148303 1.127610 -2.286106
v 0.923941 -0.600026 1.459951
v 0.923941 1.127610 1.459951
v 1.041463 1.019676 -3.593120
v 0.923941 -0.610446 -3.593120
v 0.923941 -0.522925 2.895154
v 0.923941 1.127610 2.470565
v 0.636097 0.304848 -4.991643
v 0.923941 0.379550 3.623418
v 2.798816 1.039946 1.459951
v 2.798816 1.039946 -0.561277
v 2.798816 0.787713 1.459951
v 2.798816 0.787713 -0.561277
v 2.798816 1.039946 -2.582506
v 2.798816 0.787713 -2.582506
v 2.798816 1.039946 2.470565
v 2.798816 0.787713 2.470565
v 2.798816 0.932012 -3.593120
v 2.798816 0.679779 -3.593120
v 2.719225 -0.011313 1.479947
v 2.719225 -0.011313 -0.541281
v 2.719225 -0.011313 -2.562510
v 2.719225 0.254353 2.490561
v 2.719225 0.204853 -3.573124
v 2.798816 -0.011313 1.479947
v 2.798816 -0.011313 -0.541281
v 2.798816 -0.011313 -2.562510
v 2.798816 0.254353 2.490561
v 2.798816 0.204853 -3.573124
v 2.718920 0.560236 -5.140075
v 2.718920 0.308003 -5.013132
v 1.847577 0.544011 -5.140075
v 2.718920 0.677826 -5.018555
v 1.847577 0.765490 -5.018555
v 2.719363 0.621074 3.756674
v 2.719363 0.873307 3.835983
v 1.813153 0.843553 3.835983
v 1.848020 1.078561 3.751251
v 1.848020 0.621074 3.756674
v 2.719363 0.990897 3.751251
v 0.485919 0.906104 -4.636971
v 0.247470 0.670097 -5.060251
v 0.923941 1.260734 -2.615742
v 0.684928 1.152800 -3.626356
vn -1.0000 -0.0000 -0.0000
vn 0.0248 -0.9523 -0.3043
vn -0.0000 0.9774 0.2116
vn -0.0000 -0.2708 0.9626
vn -0.0410 -0.6161 -0.7866
vn 0.0262 -0.9927 0.1177
vn -0.0000 1.0000 -0.0000
vn 1.0000 -0.0000 -0.0000
vn -0.1213 -0.9926 -0.0033
vn -0.0528 -0.8635 0.5016
vn -0.3087 0.7213 -0.6200
vn -0.0000 -1.0000 -0.0000
vn -0.0875 0.8694 -0.4863
vn -0.0000 0.5387 0.8425
vn -0.1211 -0.9907 -0.0616
vn 0.0181 0.9956 -0.0919
vn -0.1212 -0.9919 0.0392
vn -0.0000 -0.0000 1.0000
vn -0.0000 0.9715 -0.2371
vn -0.1193 -0.9287 -0.3511
vn -0.0000 -0.9943 0.1062
vn -0.0000 0.9943 -0.1062
vn -0.0991 0.9853 -0.1392
vn -0.1001 0.9950 -0.0000
vn -0.0995 0.9894 -0.1057
vn -1.0000 0.0001 -0.0004
vn 1.0000 -0.0016 0.0020
vn -0.0996 0.9901 0.0993
vn 0.0076 -0.9956 -0.0933
vn 0.9951 0.0984 -0.0016
vn -0.1211 -0.9912 0.0532
vn -0.0000 -0.0000 -1.0000
vn -0.1951 -0.0000 0.9808
vn -0.5556 -0.0000 0.8315
vn -0.8315 -0.0000 0.5556
vn -0.9808 -0.0000 0.1951
vn -0.9808 -0.0000 -0.1951
vn -0.8315 -0.0000 -0.5556
vn -0.5556 -0.0000 -0.8315
vn -0.1951 -0.0000 -0.9808
vn -0.1227 -0.3362 -0.9338
vn -0.0000 -0.9986 0.0536
vn -0.0000 -0.9480 -0.3183
vn -0.0000 0.9272 0.3745
vn -0.0000 -0.9992 0.0395
vn -0.4891 0.8587 -0.1530
vn -0.0000 -0.9981 -0.0620
vn -0.0000 0.8543 -0.5198
vn -0.0000 -0.8280 0.5607
vn -0.0000 -1.0000 -0.0033
vn -0.0000 -0.5586 -0.8294
vn -0.0000 0.0375 0.9993
vn -0.0000 -0.0421 -0.9991
vn -0.0000 -0.9779 -0.2092
vn -0.0000 -0.9671 0.2542
vn 0.0053 -0.4889 -0.8723
vn -0.0239 0.5824 -0.8125
vn -1.0000 0.0004 -0.0008
vn 1.0000 -0.0002 0.0007
vn 0.1542 -0.6559 0.7389
vn -1.0000 -0.0001 -0.0006
vn -0.0053 -0.3166 0.9486
vn -0.0141 0.4320 0.9018
vn 0.9861 -0.1605 -0.0424
vn -0.0974 0.9684 0.2295
vn 0.9878 0.1527 0.0321
vn -1.0000 -0.0002 -0.0005
vn 0.0240 0.8671 -0.4975
vn -0.1341 0.4163 -0.8993
vn -0.3261 0.9053 -0.2721
vn -0.0248 -0.9523 -0.3043
vn 0.0410 -0.6161 -0.7866
vn -0.0262 -0.9927 0.1177
vn 0.1213 -0.9926 -0.0033
vn 0.0528 -0.8635 0.5016
vn 0.3087 0.7213 -0.6200
vn 0.0875 0.8694 -0.4863
vn 0.1211 -0.9907 -0.0616
vn -0.0181 0.9956 -0.0919
vn 0.1212 -0.9919 0.0392
vn 0.1193 -0.9287 -0.3511
vn 0.0991 0.9853 -0.1392
vn 0.1001 0.9950 -0.0000
vn 0.0995 0.9894 -0.1057
vn 1.0000 0.0001 -0.0004
vn -1.0000 -0.0016 0.0020
vn 0.0996 0.9901 0.0993
vn -0.0076 -0.9956 -0.0933
vn -0.9952 0.0984 -0.0016
vn 0.1211 -0.9912 0.0532
vn 0.1951 -0.0000 0.9808
vn 0.5556 -0.0000 0.8315
vn 0.8315 -0.0000 0.5556
vn 0.9808 -0.0000 0.1951
vn 0.9808 -0.0000 -0.1951
vn 0.8315 -0.0000 -0.5556
vn 0.5556 -0.0000 -0.8315
vn 0.1951 -0.0000 -0.9808
vn 0.1227 -0.3362 -0.9338
vn 0.4891 0.8587 -0.1530
vn -0.0053 -0.4889 -0.8723
vn 0.0239 0.5824 -0.8125
vn 1.0000 0.0004 -0.0008
vn -1.0000 -0.0002 0.0007
vn -0.1542 -0.6559 0.7389
vn 1.0000 -0.0001 -0.0006
vn 0.0053 -0.3166 0.9486
vn 0.0141 0.4320 0.9018
vn -0.9861 -0.1605 -0.0424
vn 0.0974 0.9684 0.2295
vn -0.9878 0.1527 0.0321
vn 1.0000 -0.0002 -0.0005
vn -0.0240 0.8671 -0.4975
vn 0.1341 0.4163 -0.8993
vn 0.3261 0.9053 -0.2721
vt 0.500000 0.218750
vt 0.625000 0.218750
vt 0.625000 0.250000
vt 0.500000 0.250000
vt 0.500000 0.000000
vt 0.787983 0.718750
vt 0.825965 0.718750
vt 0.824948 0.750000
vt 0.787474 0.750000
vt 0.218750 0.000000
vt 0.437500 0.000000
vt 0.375000 0.000000
vt 0.187500 0.000000
vt 0.218750 0.125000
vt 0.187500 0.125000
vt 0.375000 0.250000
vt 0.437500 0.250000
vt 0.790995 0.562500
vt 0.831991 0.562500
vt 0.829015 0.625000
vt 0.789508 0.625000
vt 0.500000 0.062500
vt 0.500000 0.031250
vt 0.187500 0.093750
vt 0.187500 0.062500
vt 0.375000 0.125000
vt 0.375000 0.187500
vt 0.187500 0.015625
vt 0.375000 0.031250
vt 0.500000 0.343750
vt 0.625000 0.332517
vt 0.437500 0.218750
vt 0.437500 0.062500
vt 0.500000 0.125000
vt 0.437500 0.125000
vt 0.833479 0.531250
vt 0.875000 0.500000
vt 0.834966 0.500000
vt 0.500000 0.906250
vt 0.625000 0.912474
vt 0.625000 0.949948
vt 0.500000 0.937500
vt 0.625000 0.125000
vt 0.625000 0.062500
vt 0.500000 0.187500
vt 0.437500 0.187500
vt 0.187500 0.109375
vt 0.375000 0.218750
vt 0.791739 0.531250
vt 0.625000 0.031250
vt 0.826982 0.687500
vt 0.437500 0.031250
vt 0.187500 0.031250
vt 0.375000 0.062500
vt 0.788491 0.687500
vt 0.792483 0.500000
vt 0.625000 0.000000
vt 0.625000 0.187500
vt 0.875000 0.531250
vt 0.875000 0.625000
vt 0.875000 0.687500
vt 0.875000 0.562500
vt 0.875000 0.718750
vt 0.625000 0.290034
vt 0.500000 0.312500
vt 0.875000 0.750000
vt 0.250000 0.125000
vt 0.250000 0.000000
vt 0.500000 0.500000
vt 0.500000 1.000000
vt 0.437500 1.000000
vt 0.437500 0.500000
vt 0.375000 1.000000
vt 0.375000 0.500000
vt 0.312500 1.000000
vt 0.312500 0.500000
vt 0.250000 1.000000
vt 0.250000 0.500000
vt 0.187500 1.000000
vt 0.187500 0.500000
vt 0.125000 1.000000
vt 0.125000 0.500000
vt 0.062500 1.000000
vt 0.062500 0.500000
vt 0.000000 1.000000
vt 0.000000 0.500000
vt 0.000000 0.000000
vt 0.750000 0.687500
vt 0.750000 0.718750
vt 0.750000 0.562500
vt 0.750000 0.625000
vt 0.500000 0.875000
vt 0.625000 0.875000
vt 0.750000 0.750000
vt 0.625000 1.000000
vt 0.625000 0.375000
vt 0.500000 0.375000
vt 0.750000 0.500000
vt 0.750000 0.531250
s 0
usemtl Tank_Body
f 39/1/1 38/2/1 4/3/1 6/4/1
f 5/5/2 22/5/2 140/5/2 136/5/2
f 108/6/3 60/7/3 1/8/3 94/9/3
f 110/10/4 68/11/4 19/12/4 100/13/4
f 109/14/5 93/15/5 21/16/5 67/17/5
f 39/1/6 6/4/6 20/4/6 40/1/6
f 102/18/7 24/19/7 7/20/7 97/21/7
f 32/22/8 62/23/8 124/23/8 121/22/8
f 101/24/9 96/25/9 18/26/9 30/27/9
f 107/28/10 100/13/10 19/12/10 59/29/10
f 99/30/11 95/31/11 142/31/11 145/30/11
f 73/32/1 40/1/1 20/4/1 67/17/1
f 72/33/1 36/22/1 23/34/1 69/35/1
f 32/22/12 9/34/12 23/34/12 36/22/12
f 24/19/8 41/36/8 55/36/8 45/19/8
f 7/20/8 24/19/8 45/19/8 46/20/8
f 48/37/13 51/38/13 135/38/13 134/37/13
f 98/39/14 94/40/14 1/41/14 22/42/14
f 8/43/1 31/44/1 52/44/1 53/43/1
f 69/35/1 23/34/1 29/45/1 71/46/1
f 106/47/15 101/24/15 30/27/15 44/48/15
f 105/49/16 41/36/16 24/19/16 102/18/16
f 9/34/12 26/45/12 29/45/12 23/34/12
f 61/50/7 31/44/7 111/44/7 117/50/7
f 60/7/8 37/51/8 54/51/8 64/7/8
f 62/23/12 32/22/12 36/22/12 63/23/12
f 74/52/1 63/23/1 36/22/1 72/33/1
f 96/25/17 103/53/17 35/54/17 18/26/17
f 62/23/18 61/50/18 117/50/18 118/23/18
f 97/21/7 7/20/7 37/51/7 104/55/7
f 95/56/19 3/38/19 41/36/19 105/49/19
f 93/15/20 106/47/20 44/48/20 21/16/20
f 61/50/1 2/57/1 50/57/1 65/50/1
f 71/46/1 29/45/1 40/1/1 73/32/1
f 26/45/21 39/1/21 40/1/21 29/45/21
f 25/58/22 38/2/22 119/2/22 115/58/22
f 55/36/23 51/38/23 48/37/23 47/59/23
f 54/51/24 46/20/24 53/60/24 52/61/24
f 46/20/24 45/19/24 56/62/24 53/60/24
f 64/7/24 54/51/24 52/61/24 65/63/24
f 45/19/25 55/36/25 47/59/25 56/62/25
f 25/58/1 8/43/1 53/43/1 56/58/1
f 2/57/26 5/5/26 136/5/26 137/57/26
f 41/36/8 3/38/8 51/38/8 55/36/8
f 37/51/8 7/20/8 46/20/8 54/51/8
f 4/3/1 38/2/1 47/2/1 48/3/1
f 38/2/1 25/58/1 56/58/1 47/2/1
f 3/64/27 20/65/27 67/65/27 133/64/27
f 49/8/28 64/7/28 65/63/28 50/66/28
f 31/44/1 61/50/1 65/50/1 52/44/1
f 5/5/1 2/57/1 61/50/1 62/23/1
f 68/11/1 22/5/1 63/23/1 74/52/1
f 5/5/29 62/23/29 63/23/29 22/5/29
f 1/8/30 60/7/30 64/7/30 49/8/30
f 103/53/31 107/28/31 59/29/31 35/54/31
f 104/55/7 37/51/7 60/7/7 108/6/7
f 19/12/1 68/11/1 74/52/1 59/29/1
f 30/27/1 71/46/1 73/32/1 44/48/1
f 59/29/1 74/52/1 72/33/1 35/54/1
f 18/26/1 69/35/1 71/46/1 30/27/1
f 35/54/1 72/33/1 69/35/1 18/26/1
f 44/48/1 73/32/1 67/17/1 21/16/1
f 99/67/32 109/14/32 67/17/32 20/4/32
f 98/68/18 22/5/18 68/11/18 110/10/18
f 14/87/18 98/68/18 110/10/18 66/87/18
f 15/87/41 70/87/41 109/14/41 99/67/41
f 33/88/7 104/55/7 108/6/7 57/89/7
f 34/87/42 58/87/42 107/28/42 103/53/42
f 10/87/43 42/87/43 106/47/43 93/15/43
f 102/18/44 28/90/44 147/90/44 148/18/44
f 16/91/7 97/21/7 104/55/7 33/88/7
f 17/87/45 34/87/45 103/53/45 96/25/45
f 105/49/46 102/18/46 148/18/46 149/49/46
f 42/87/47 27/87/47 101/24/47 106/47/47
f 14/92/14 13/93/14 94/40/14 98/39/14
f 20/65/48 3/64/48 95/31/48 99/30/48
f 58/87/49 12/87/49 100/13/49 107/28/49
f 27/87/50 17/87/50 96/25/50 101/24/50
f 28/90/7 102/18/7 97/21/7 16/91/7
f 70/87/51 10/87/51 93/15/51 109/14/51
f 66/87/4 110/10/4 100/13/4 12/87/4
f 57/89/3 108/6/3 94/9/3 13/94/3
f 113/22/1 111/44/1 112/43/1 114/34/1
f 114/34/1 112/43/1 115/58/1 116/45/1
f 118/23/1 117/50/1 111/44/1 113/22/1
f 116/45/1 115/58/1 119/2/1 120/1/1
f 62/23/52 118/23/52 129/23/52 124/23/52
f 31/44/7 8/43/7 112/43/7 111/44/7
f 38/2/32 39/1/32 120/1/32 119/2/32
f 8/43/7 25/58/7 115/58/7 112/43/7
f 39/1/8 26/45/8 123/45/8 125/1/8
f 120/1/53 39/1/53 125/1/53 130/1/53
f 125/1/54 123/45/54 128/45/54 130/1/54
f 121/22/55 124/23/55 129/23/55 126/22/55
f 122/34/12 121/22/12 126/22/12 127/34/12
f 123/45/12 122/34/12 127/34/12 128/45/12
f 116/45/1 120/1/1 130/1/1 128/45/1
f 118/23/1 113/22/1 126/22/1 129/23/1
f 114/34/1 116/45/1 128/45/1 127/34/1
f 9/34/8 32/22/8 121/22/8 122/34/8
f 113/22/1 114/34/1 127/34/1 126/22/1
f 26/45/8 9/34/8 122/34/8 123/45/8
f 132/4/56 131/3/56 133/64/56 67/65/56
f 133/64/57 131/3/57 134/3/57 135/64/57
f 4/3/58 48/3/58 134/3/58 131/3/58
f 51/38/59 3/38/59 133/38/59 135/38/59
f 20/4/60 6/4/60 132/4/60 67/4/60
f 6/4/61 4/3/61 131/3/61 132/4/61
f 140/42/62 138/41/62 137/95/62 136/70/62
f 137/95/63 138/41/63 139/41/63 141/95/63
f 22/42/64 1/41/64 138/41/64 140/42/64
f 49/8/65 50/66/65 141/66/65 139/8/65
f 1/8/66 49/8/66 139/8/66 138/8/66
f 50/57/67 2/57/67 137/57/67 141/57/67
f 145/30/68 142/31/68 143/96/68 144/97/68
f 143/98/19 142/56/19 149/49/19 146/99/19
f 146/99/22 149/49/22 148/18/22 147/90/22
f 11/87/8 15/87/8 144/87/8 143/87/8
f 15/87/69 99/67/69 145/67/69 144/87/69
f 28/87/8 43/87/8 146/87/8 147/87/8
f 95/56/70 105/49/70 149/49/70 142/56/70
f 43/87/8 11/87/8 143/87/8 146/87/8
f 176/1/8 155/4/8 153/3/8 175/2/8
f 154/5/71 263/5/71 267/5/71 163/5/71
f 235/6/3 221/9/3 150/8/3 193/7/3
f 237/10/4 227/13/4 160/12/4 200/11/4
f 236/14/72 199/17/72 162/16/72 220/15/72
f 176/1/73 177/1/73 161/4/73 155/4/73
f 229/18/7 224/21/7 156/20/7 165/19/7
f 171/22/1 248/22/1 251/23/1 195/23/1
f 228/24/74 169/27/74 159/26/74 223/25/74
f 234/28/75 192/29/75 160/12/75 227/13/75
f 226/30/76 270/30/76 269/31/76 222/31/76
f 204/32/8 199/17/8 161/4/8 177/1/8
f 203/33/8 201/35/8 164/34/8 173/22/8
f 171/22/12 173/22/12 164/34/12 158/34/12
f 165/19/1 180/19/1 190/36/1 178/36/1
f 156/20/1 181/20/1 180/19/1 165/19/1
f 183/37/77 261/37/77 262/38/77 186/38/77
f 225/39/14 163/42/14 150/41/14 221/40/14
f 157/43/8 188/43/8 187/44/8 170/44/8
f 201/35/8 202/46/8 168/45/8 164/34/8
f 233/47/78 179/48/78 169/27/78 228/24/78
f 232/49/79 229/18/79 165/19/79 178/36/79
f 158/34/12 164/34/12 168/45/12 167/45/12
f 194/50/7 244/50/7 238/44/7 170/44/7
f 193/7/1 197/7/1 189/51/1 174/51/1
f 195/23/12 196/23/12 173/22/12 171/22/12
f 205/52/8 203/33/8 173/22/8 196/23/8
f 223/25/80 159/26/80 172/54/80 230/53/80
f 195/23/18 245/23/18 244/50/18 194/50/18
f 224/21/7 231/55/7 174/51/7 156/20/7
f 222/56/19 232/49/19 178/36/19 152/38/19
f 220/15/81 162/16/81 179/48/81 233/47/81
f 194/50/8 198/50/8 185/57/8 151/57/8
f 202/46/8 204/32/8 177/1/8 168/45/8
f 167/45/21 168/45/21 177/1/21 176/1/21
f 166/58/22 242/58/22 246/2/22 175/2/22
f 190/36/82 182/59/82 183/37/82 186/38/82
f 189/51/83 187/61/83 188/60/83 181/20/83
f 181/20/83 188/60/83 191/62/83 180/19/83
f 197/7/83 198/63/83 187/61/83 189/51/83
f 180/19/84 191/62/84 182/59/84 190/36/84
f 166/58/8 191/58/8 188/43/8 157/43/8
f 151/57/85 264/57/85 263/5/85 154/5/85
f 178/36/1 190/36/1 186/38/1 152/38/1
f 174/51/1 189/51/1 181/20/1 156/20/1
f 153/3/8 183/3/8 182/2/8 175/2/8
f 175/2/8 182/2/8 191/58/8 166/58/8
f 152/64/86 260/64/86 199/65/86 161/65/86
f 184/8/87 185/66/87 198/63/87 197/7/87
f 170/44/8 187/44/8 198/50/8 194/50/8
f 154/5/8 195/23/8 194/50/8 151/57/8
f 200/11/8 205/52/8 196/23/8 163/5/8
f 154/5/88 163/5/88 196/23/88 195/23/88
f 150/8/89 184/8/89 197/7/89 193/7/89
f 230/53/90 172/54/90 192/29/90 234/28/90
f 231/55/7 235/6/7 193/7/7 174/51/7
f 160/12/8 192/29/8 205/52/8 200/11/8
f 169/27/8 179/48/8 204/32/8 202/46/8
f 192/29/8 172/54/8 203/33/8 205/52/8
f 159/26/8 169/27/8 202/46/8 201/35/8
f 172/54/8 159/26/8 201/35/8 203/33/8
f 179/48/8 162/16/8 199/17/8 204/32/8
f 226/67/32 161/4/32 199/17/32 236/14/32
f 225/68/18 237/10/18 200/11/18 163/5/18
f 14/87/18 66/87/18 237/10/18 225/68/18
f 15/87/99 226/67/99 236/14/99 70/87/99
f 33/88/7 57/89/7 235/6/7 231/55/7
f 34/87/42 230/53/42 234/28/42 58/87/42
f 10/87/43 220/15/43 233/47/43 42/87/43
f 229/18/44 271/18/44 147/90/44 28/90/44
f 16/91/7 33/88/7 231/55/7 224/21/7
f 17/87/45 223/25/45 230/53/45 34/87/45
f 232/49/100 272/49/100 271/18/100 229/18/100
f 42/87/47 233/47/47 228/24/47 27/87/47
f 14/92/14 225/39/14 221/40/14 13/93/14
f 161/65/48 226/30/48 222/31/48 152/64/48
f 58/87/49 234/28/49 227/13/49 12/87/49
f 27/87/50 228/24/50 223/25/50 17/87/50
f 28/90/7 16/91/7 224/21/7 229/18/7
f 70/87/51 236/14/51 220/15/51 10/87/51
f 66/87/4 12/87/4 227/13/4 237/10/4
f 57/89/3 13/94/3 221/9/3 235/6/3
f 240/22/8 241/34/8 239/43/8 238/44/8
f 241/34/8 243/45/8 242/58/8 239/43/8
f 245/23/8 240/22/8 238/44/8 244/50/8
f 243/45/8 247/1/8 246/2/8 242/58/8
f 195/23/52 251/23/52 256/23/52 245/23/52
f 170/44/7 238/44/7 239/43/7 157/43/7
f 175/2/32 246/2/32 247/1/32 176/1/32
f 157/43/7 239/43/7 242/58/7 166/58/7
f 176/1/1 252/1/1 250/45/1 167/45/1
f 247/1/53 257/1/53 252/1/53 176/1/53
f 252/1/54 257/1/54 255/45/54 250/45/54
f 248/22/55 253/22/55 256/23/55 251/23/55
f 249/34/12 254/34/12 253/22/12 248/22/12
f 250/45/12 255/45/12 254/34/12 249/34/12
f 243/45/8 255/45/8 257/1/8 247/1/8
f 245/23/8 256/23/8 253/22/8 240/22/8
f 241/34/8 254/34/8 255/45/8 243/45/8
f 158/34/1 249/34/1 248/22/1 171/22/1
f 240/22/8 253/22/8 254/34/8 241/34/8
f 167/45/1 250/45/1 249/34/1 158/34/1
f 259/4/101 199/65/101 260/64/101 258/3/101
f 260/64/102 262/64/102 261/3/102 258/3/102
f 153/3/103 258/3/103 261/3/103 183/3/103
f 186/38/104 262/38/104 260/38/104 152/38/104
f 161/4/105 199/4/105 259/4/105 155/4/105
f 155/4/106 259/4/106 258/3/106 153/3/106
f 267/42/107 263/70/107 264/95/107 265/41/107
f 264/95/108 268/95/108 266/41/108 265/41/108
f 163/42/109 267/42/109 265/41/109 150/41/109
f 184/8/110 266/8/110 268/66/110 185/66/110
f 150/8/111 265/8/111 266/8/111 184/8/111
f 185/57/112 268/57/112 264/57/112 151/57/112
f 270/30/113 144/97/113 143/96/113 269/31/113
f 143/98/19 146/99/19 272/49/19 269/56/19
f 146/99/22 147/90/22 271/18/22 272/49/22
f 15/87/114 144/87/114 270/67/114 226/67/114
f 222/56/115 269/56/115 272/49/115 232/49/115
usemtl Tank2
f 77/69/33 78/70/33 80/71/33 79/72/33
f 79/72/34 80/71/34 82/73/34 81/74/34
f 81/74/35 82/73/35 84/75/35 83/76/35
f 83/76/36 84/75/36 86/77/36 85/78/36
f 85/78/37 86/77/37 88/79/37 87/80/37
f 87/80/38 88/79/38 90/81/38 89/82/38
f 89/82/39 90/81/39 92/83/39 91/84/39
f 91/84/40 92/83/40 76/85/40 75/86/40
f 77/69/91 206/72/91 207/71/91 78/70/91
f 206/72/92 208/74/92 209/73/92 207/71/92
f 208/74/93 210/76/93 211/75/93 209/73/93
f 210/76/94 212/78/94 213/77/94 211/75/94
f 212/78/95 214/80/95 215/79/95 213/77/95
f 214/80/96 216/82/96 217/81/96 215/79/96
f 216/82/97 218/84/97 219/83/97 217/81/97
f 218/84/98 75/86/98 76/85/98 219/83/98
