# Blender 4.2.3 LTS
# www.blender.org
mtllib HeadMouthClosed2.mtl
o Head
v -0.000000 0.980785 -0.195090
v -0.000000 0.923880 -0.382683
v -0.000000 0.831470 -0.555570
v -0.000000 0.707107 -0.707106
v -0.000000 0.555570 -0.831469
v -0.000000 0.382683 -0.923879
v -0.000000 0.195090 -0.980785
v -0.000000 0.000000 -1.000000
v 0.050493 0.980785 -0.188443
v 0.099046 0.923880 -0.369644
v 0.143792 0.831470 -0.536640
v 0.183013 0.707107 -0.683012
v 0.215200 0.555570 -0.803138
v 0.239118 0.382683 -0.892399
v 0.253846 0.195090 -0.947366
v 0.258819 0.000000 -0.965926
v 0.000000 1.000000 0.000000
v 0.097545 0.980785 -0.168953
v 0.191342 0.923880 -0.331414
v 0.277785 0.831470 -0.481138
v 0.353553 0.707107 -0.612372
v 0.415735 0.555570 -0.720074
v 0.461940 0.382683 -0.800103
v 0.490392 0.195090 -0.849385
v 0.500000 0.000000 -0.866025
v 0.137950 0.980785 -0.137950
v 0.270598 0.923880 -0.270598
v 0.392847 0.831470 -0.392847
v 0.500000 0.707107 -0.500000
v 0.587938 0.555570 -0.587938
v 0.653281 0.382683 -0.653281
v 0.693520 0.195090 -0.693520
v 0.707107 0.000000 -0.707107
v 0.168953 0.980785 -0.097545
v 0.331413 0.923880 -0.191342
v 0.481138 0.831470 -0.277785
v 0.612372 0.707107 -0.353553
v 0.720074 0.555570 -0.415735
v 0.800103 0.382683 -0.461940
v 0.849385 0.195090 -0.490393
v 0.866025 0.000000 -0.500000
v 0.188443 0.980785 -0.050493
v 0.369644 0.923880 -0.099046
v 0.536640 0.831470 -0.143792
v 0.683012 0.707107 -0.183013
v 0.803138 0.555570 -0.215200
v 0.892399 0.382683 -0.239117
v 0.947366 0.195090 -0.253846
v 0.965925 0.000000 -0.258819
v 0.195090 0.980785 -0.000000
v 0.382683 0.923880 -0.000000
v 0.555570 0.831470 -0.000000
v 0.707106 0.707107 -0.000000
v 0.831469 0.555570 -0.000000
v 0.923879 0.382683 -0.000000
v 0.980785 0.195090 -0.000000
v 0.999999 0.000000 -0.000000
v -0.050493 0.980785 -0.188443
v -0.099046 0.923880 -0.369644
v -0.143792 0.831470 -0.536640
v -0.183013 0.707107 -0.683012
v -0.215200 0.555570 -0.803138
v -0.239118 0.382683 -0.892399
v -0.253846 0.195090 -0.947366
v -0.258819 0.000000 -0.965926
v -0.097545 0.980785 -0.168953
v -0.191342 0.923880 -0.331413
v -0.277785 0.831470 -0.481138
v -0.353553 0.707107 -0.612372
v -0.415735 0.555570 -0.720074
v -0.461940 0.382683 -0.800103
v -0.490392 0.195090 -0.849385
v -0.500000 0.000000 -0.866025
v -0.137950 0.980785 -0.137950
v -0.270598 0.923880 -0.270598
v -0.392847 0.831470 -0.392847
v -0.500000 0.707107 -0.500000
v -0.587938 0.555570 -0.587938
v -0.653281 0.382683 -0.653281
v -0.693520 0.195090 -0.693520
v -0.707107 0.000000 -0.707106
v -0.168953 0.980785 -0.097545
v -0.331414 0.923880 -0.191342
v -0.481138 0.831470 -0.277785
v -0.612372 0.707107 -0.353553
v -0.720074 0.555570 -0.415735
v -0.800103 0.382683 -0.461939
v -0.849385 0.195090 -0.490393
v -0.866025 0.000000 -0.500000
v -0.188443 0.980785 -0.050493
v -0.369644 0.923880 -0.099046
v -0.536640 0.831470 -0.143792
v -0.683012 0.707107 -0.183013
v -0.803138 0.555570 -0.215200
v -0.892399 0.382683 -0.239117
v -0.947366 0.195090 -0.253846
v -0.965925 0.000000 -0.258819
v -0.195090 0.980785 0.000000
v -0.382683 0.923880 0.000000
v -0.555570 0.831470 0.000000
v -0.707106 0.707107 0.000000
v -0.831469 0.555570 0.000000
v -0.923879 0.382683 0.000000
v -0.980785 0.195090 0.000000
v -0.999999 0.000000 0.000000
v 0.000000 0.980785 0.195090
v 0.000000 0.923880 0.382683
v 0.000000 0.831470 0.555570
v 0.000000 0.707107 0.707106
v 0.000000 0.555570 0.831469
v 0.000000 0.382683 0.923879
v 0.000000 0.195090 0.980785
v 0.000000 0.000000 1.000000
v 0.050493 0.980785 0.188443
v 0.099046 0.923880 0.369644
v 0.143792 0.831470 0.536640
v 0.183013 0.707107 0.683012
v 0.215200 0.555570 0.803138
v 0.239118 0.382683 0.892399
v 0.253846 0.195090 0.947366
v 0.258819 0.000000 0.965926
v 0.097545 0.980785 0.168953
v 0.191342 0.923880 0.331413
v 0.277785 0.831470 0.481138
v 0.353553 0.707107 0.612372
v 0.415735 0.555570 0.720074
v 0.461940 0.382683 0.800103
v 0.490392 0.195090 0.849385
v 0.500000 0.000000 0.866025
v 0.137950 0.980785 0.137950
v 0.270598 0.923880 0.270598
v 0.392847 0.831470 0.392847
v 0.500000 0.707107 0.500000
v 0.587938 0.555570 0.587938
v 0.653281 0.382683 0.653281
v 0.693520 0.195090 0.693520
v 0.707107 0.000000 0.707106
v 0.168953 0.980785 0.097545
v 0.331414 0.923880 0.191342
v 0.481138 0.831470 0.277785
v 0.612372 0.707107 0.353553
v 0.720074 0.555570 0.415735
v 0.800103 0.382683 0.461939
v 0.849385 0.195090 0.490393
v 0.866025 0.000000 0.500000
v 0.188443 0.980785 0.050493
v 0.369644 0.923880 0.099046
v 0.536640 0.831470 0.143792
v 0.683012 0.707107 0.183013
v 0.803138 0.555570 0.215200
v 0.892399 0.382683 0.239117
v 0.947366 0.195090 0.253846
v 0.965925 0.000000 0.258819
v -0.050493 0.980785 0.188443
v -0.099046 0.923880 0.369644
v -0.143792 0.831470 0.536640
v -0.183013 0.707107 0.683012
v -0.215200 0.555570 0.803138
v -0.239118 0.382683 0.892399
v -0.253846 0.195090 0.947366
v -0.258819 0.000000 0.965926
v -0.097545 0.980785 0.168953
v -0.191342 0.923880 0.331414
v -0.277785 0.831470 0.481138
v -0.353553 0.707107 0.612372
v -0.415735 0.555570 0.720074
v -0.461940 0.382683 0.800103
v -0.490392 0.195090 0.849385
v -0.500000 0.000000 0.866025
v -0.137950 0.980785 0.137950
v -0.270598 0.923880 0.270598
v -0.392847 0.831470 0.392847
v -0.500000 0.707107 0.500000
v -0.587938 0.555570 0.587938
v -0.653281 0.382683 0.653281
v -0.693520 0.195090 0.693520
v -0.707107 0.000000 0.707107
v -0.168953 0.980785 0.097545
v -0.331413 0.923880 0.191342
v -0.481138 0.831470 0.277785
v -0.612372 0.707107 0.353553
v -0.720074 0.555570 0.415735
v -0.800103 0.382683 0.461940
v -0.849385 0.195090 0.490393
v -0.866025 0.000000 0.500000
v -0.188443 0.980785 0.050493
v -0.369644 0.923880 0.099046
v -0.536640 0.831470 0.143792
v -0.683012 0.707107 0.183013
v -0.803138 0.555570 0.215200
v -0.892399 0.382683 0.239117
v -0.947366 0.195090 0.253846
v -0.965925 0.000000 0.258819
v 0.258819 -0.250000 -0.965926
v -0.000000 -0.250000 -1.000000
v 0.500000 -0.250000 -0.866025
v 0.707107 -0.250000 -0.707107
v 0.866025 -0.250000 -0.500000
v 0.965925 -0.250000 -0.258819
v 0.999999 -0.250000 -0.000000
v 0.000000 -0.250000 0.000000
v -0.258819 -0.250000 -0.965926
v -0.500000 -0.250000 -0.866025
v -0.707107 -0.250000 -0.707106
v -0.866025 -0.250000 -0.500000
v -0.965925 -0.250000 -0.258819
v -0.999999 -0.250000 0.000000
v 0.258819 -0.250000 0.965926
v 0.000000 -0.250000 1.000000
v 0.500000 -0.250000 0.866025
v 0.707107 -0.250000 0.707106
v 0.866025 -0.250000 0.500000
v 0.965925 -0.250000 0.258819
v -0.258819 -0.250000 0.965926
v -0.500000 -0.250000 0.866025
v -0.707107 -0.250000 0.707107
v -0.866025 -0.250000 0.500000
v -0.965925 -0.250000 0.258819
vn -0.0000 0.9792 -0.2029
vn -0.0000 0.9210 -0.3896
vn -0.0000 0.8277 -0.5612
vn -0.0000 0.7031 -0.7111
vn -0.0000 0.5518 -0.8340
vn -0.0000 0.3798 -0.9251
vn -0.0000 0.1936 -0.9811
vn -0.0000 0.0489 -0.9988
vn 0.0525 0.9792 -0.1960
vn 0.1008 0.9210 -0.3763
vn 0.1452 0.8277 -0.5420
vn 0.1841 0.7031 -0.6869
vn 0.2158 0.5518 -0.8055
vn 0.2394 0.3798 -0.8935
vn 0.2539 0.1936 -0.9477
vn 0.2585 0.0489 -0.9648
vn -0.0000 1.0000 -0.0000
vn 0.1015 0.9792 -0.1757
vn 0.1948 0.9210 -0.3374
vn 0.2806 0.8277 -0.4860
vn 0.3556 0.7031 -0.6159
vn 0.4170 0.5518 -0.7222
vn 0.4625 0.3798 -0.8011
vn 0.4905 0.1936 -0.8496
vn 0.4994 0.0489 -0.8650
vn 0.1435 0.9792 -0.1435
vn 0.2755 0.9210 -0.2755
vn 0.3968 0.8277 -0.3968
vn 0.5028 0.7031 -0.5028
vn 0.5897 0.5518 -0.5897
vn 0.6541 0.3798 -0.6541
vn 0.6937 0.1936 -0.6937
vn 0.7063 0.0489 -0.7063
vn 0.1757 0.9792 -0.1015
vn 0.3374 0.9210 -0.1948
vn 0.4860 0.8277 -0.2806
vn 0.6159 0.7031 -0.3556
vn 0.7222 0.5518 -0.4170
vn 0.8011 0.3798 -0.4625
vn 0.8496 0.1936 -0.4905
vn 0.8650 0.0489 -0.4994
vn 0.1960 0.9792 -0.0525
vn 0.3763 0.9210 -0.1008
vn 0.5420 0.8277 -0.1452
vn 0.6869 0.7031 -0.1841
vn 0.8055 0.5518 -0.2158
vn 0.8935 0.3798 -0.2394
vn 0.9477 0.1936 -0.2539
vn 0.9648 0.0489 -0.2585
vn 0.2029 0.9792 -0.0000
vn 0.3896 0.9210 -0.0000
vn 0.5612 0.8277 -0.0000
vn 0.7111 0.7031 -0.0000
vn 0.8340 0.5518 -0.0000
vn 0.9251 0.3798 -0.0000
vn 0.9811 0.1936 -0.0000
vn 0.9988 0.0489 -0.0000
vn -0.0525 0.9792 -0.1960
vn -0.1008 0.9210 -0.3763
vn -0.1452 0.8277 -0.5420
vn -0.1841 0.7031 -0.6869
vn -0.2158 0.5518 -0.8055
vn -0.2394 0.3798 -0.8935
vn -0.2539 0.1936 -0.9477
vn -0.2585 0.0489 -0.9648
vn -0.1015 0.9792 -0.1757
vn -0.1948 0.9210 -0.3374
vn -0.2806 0.8277 -0.4860
vn -0.3556 0.7031 -0.6159
vn -0.4170 0.5518 -0.7222
vn -0.4625 0.3798 -0.8011
vn -0.4905 0.1936 -0.8496
vn -0.4994 0.0489 -0.8650
vn -0.1435 0.9792 -0.1435
vn -0.2755 0.9210 -0.2755
vn -0.3968 0.8277 -0.3968
vn -0.5028 0.7031 -0.5028
vn -0.5897 0.5518 -0.5897
vn -0.6541 0.3798 -0.6541
vn -0.6937 0.1936 -0.6937
vn -0.7063 0.0489 -0.7063
vn -0.1757 0.9792 -0.1015
vn -0.3374 0.9210 -0.1948
vn -0.4860 0.8277 -0.2806
vn -0.6159 0.7031 -0.3556
vn -0.7222 0.5518 -0.4170
vn -0.8011 0.3798 -0.4625
vn -0.8496 0.1936 -0.4905
vn -0.8650 0.0489 -0.4994
vn -0.1960 0.9792 -0.0525
vn -0.3763 0.9210 -0.1008
vn -0.5420 0.8277 -0.1452
vn -0.6869 0.7031 -0.1841
vn -0.8055 0.5518 -0.2158
vn -0.8935 0.3798 -0.2394
vn -0.9477 0.1936 -0.2539
vn -0.9648 0.0489 -0.2585
vn -0.2029 0.9792 -0.0000
vn -0.3896 0.9210 -0.0000
vn -0.5612 0.8277 -0.0000
vn -0.7111 0.7031 -0.0000
vn -0.8340 0.5518 -0.0000
vn -0.9251 0.3798 -0.0000
vn -0.9811 0.1936 -0.0000
vn -0.9988 0.0489 -0.0000
vn -0.0000 0.9792 0.2029
vn -0.0000 0.9210 0.3896
vn -0.0000 0.8277 0.5612
vn -0.0000 0.7031 0.7111
vn -0.0000 0.5518 0.8340
vn -0.0000 0.3798 0.9251
vn -0.0000 0.1936 0.9811
vn -0.0000 0.0489 0.9988
vn 0.0525 0.9792 0.1960
vn 0.1008 0.9210 0.3763
vn 0.1452 0.8277 0.5420
vn 0.1841 0.7031 0.6869
vn 0.2158 0.5518 0.8055
vn 0.2394 0.3798 0.8935
vn 0.2539 0.1936 0.9477
vn 0.2585 0.0489 0.9648
vn 0.1015 0.9792 0.1757
vn 0.1948 0.9210 0.3374
vn 0.2806 0.8277 0.4860
vn 0.3556 0.7031 0.6159
vn 0.4170 0.5518 0.7222
vn 0.4625 0.3798 0.8011
vn 0.4905 0.1936 0.8496
vn 0.4994 0.0489 0.8650
vn 0.1435 0.9792 0.1435
vn 0.2755 0.9210 0.2755
vn 0.3968 0.8277 0.3968
vn 0.5028 0.7031 0.5028
vn 0.5897 0.5518 0.5897
vn 0.6541 0.3798 0.6541
vn 0.6937 0.1936 0.6937
vn 0.7063 0.0489 0.7063
vn 0.1757 0.9792 0.1015
vn 0.3374 0.9210 0.1948
vn 0.4860 0.8277 0.2806
vn 0.6159 0.7031 0.3556
vn 0.7222 0.5518 0.4170
vn 0.8011 0.3798 0.4625
vn 0.8496 0.1936 0.4905
vn 0.8650 0.0489 0.4994
vn 0.1960 0.9792 0.0525
vn 0.3763 0.9210 0.1008
vn 0.5420 0.8277 0.1452
vn 0.6869 0.7031 0.1841
vn 0.8055 0.5518 0.2158
vn 0.8935 0.3798 0.2394
vn 0.9477 0.1936 0.2539
vn 0.9648 0.0489 0.2585
vn -0.0525 0.9792 0.1960
vn -0.1008 0.9210 0.3763
vn -0.1452 0.8277 0.5420
vn -0.1841 0.7031 0.6869
vn -0.2158 0.5518 0.8055
vn -0.2394 0.3798 0.8935
vn -0.2539 0.1936 0.9477
vn -0.2585 0.0489 0.9648
vn -0.1015 0.9792 0.1757
vn -0.1948 0.9210 0.3374
vn -0.2806 0.8277 0.4860
vn -0.3556 0.7031 0.6159
vn -0.4170 0.5518 0.7222
vn -0.4625 0.3798 0.8011
vn -0.4905 0.1936 0.8496
vn -0.4994 0.0489 0.8650
vn -0.1435 0.9792 0.1435
vn -0.2755 0.9210 0.2755
vn -0.3968 0.8277 0.3968
vn -0.5028 0.7031 0.5028
vn -0.5897 0.5518 0.5897
vn -0.6541 0.3798 0.6541
vn -0.6937 0.1936 0.6937
vn -0.7063 0.0489 0.7063
vn -0.1757 0.9792 0.1015
vn -0.3374 0.9210 0.1948
vn -0.4860 0.8277 0.2806
vn -0.6159 0.7031 0.3556
vn -0.7222 0.5518 0.4170
vn -0.8011 0.3798 0.4625
vn -0.8496 0.1936 0.4905
vn -0.8650 0.0489 0.4994
vn -0.1960 0.9792 0.0525
vn -0.3763 0.9210 0.1008
vn -0.5420 0.8277 0.1452
vn -0.6869 0.7031 0.1841
vn -0.8055 0.5518 0.2158
vn -0.8935 0.3798 0.2394
vn -0.9477 0.1936 0.2539
vn -0.9648 0.0489 0.2585
vn 0.1900 -0.6789 -0.7092
vn -0.0000 -0.6789 -0.7342
vn 0.3671 -0.6789 -0.6359
vn 0.5192 -0.6789 -0.5192
vn 0.6359 -0.6789 -0.3671
vn 0.7092 -0.6789 -0.1900
vn 0.7342 -0.6789 -0.0000
vn -0.0000 -1.0000 -0.0000
vn -0.1900 -0.6789 -0.7092
vn -0.3671 -0.6789 -0.6359
vn -0.5192 -0.6789 -0.5192
vn -0.6359 -0.6789 -0.3671
vn -0.7092 -0.6789 -0.1900
vn -0.7342 -0.6789 -0.0000
vn 0.1900 -0.6789 0.7092
vn -0.0000 -0.6789 0.7342
vn 0.3671 -0.6789 0.6359
vn 0.5192 -0.6789 0.5192
vn 0.6359 -0.6789 0.3671
vn 0.7092 -0.6789 0.1900
vn -0.1900 -0.6789 0.7092
vn -0.3671 -0.6789 0.6359
vn -0.5192 -0.6789 0.5192
vn -0.6359 -0.6789 0.3671
vn -0.7092 -0.6789 0.1900
vt 0.250000 0.625000
vt 0.250000 0.687500
vt 0.208333 0.687500
vt 0.208333 0.625000
vt 0.250000 0.562500
vt 0.208333 0.562500
vt 0.250000 0.500000
vt 0.208333 0.500000
vt 0.250000 0.937500
vt 0.229167 1.000000
vt 0.208333 0.937500
vt 0.250000 0.875000
vt 0.208333 0.875000
vt 0.250000 0.812500
vt 0.208333 0.812500
vt 0.250000 0.750000
vt 0.208333 0.750000
vt 0.166667 0.875000
vt 0.166667 0.812500
vt 0.166667 0.750000
vt 0.166667 0.687500
vt 0.166667 0.625000
vt 0.166667 0.562500
vt 0.166667 0.500000
vt 0.187500 1.000000
vt 0.166667 0.937500
vt 0.125000 0.625000
vt 0.125000 0.562500
vt 0.125000 0.500000
vt 0.145833 1.000000
vt 0.125000 0.937500
vt 0.125000 0.875000
vt 0.125000 0.812500
vt 0.125000 0.750000
vt 0.125000 0.687500
vt 0.083333 0.875000
vt 0.083333 0.812500
vt 0.083333 0.750000
vt 0.083333 0.687500
vt 0.083333 0.625000
vt 0.083333 0.562500
vt 0.083333 0.500000
vt 0.104167 1.000000
vt 0.083333 0.937500
vt 0.041667 0.625000
vt 0.041667 0.562500
vt 0.041667 0.500000
vt 0.062500 1.000000
vt 0.041667 0.937500
vt 0.041667 0.875000
vt 0.041667 0.812500
vt 0.041667 0.750000
vt 0.041667 0.687500
vt 0.000000 0.812500
vt 0.000000 0.750000
vt 0.000000 0.687500
vt 0.000000 0.625000
vt 0.000000 0.562500
vt 0.000000 0.500000
vt 0.020833 1.000000
vt 0.000000 0.937500
vt 0.000000 0.875000
vt 0.000000 0.000000
s 1
usemtl Head
f 6/1/6 5/2/5 13/3/13 14/4/14
f 7/5/7 6/1/6 14/4/14 15/6/15
f 8/7/8 7/5/7 15/6/15 16/8/16
f 1/9/1 17/10/17 9/11/9
f 2/12/2 1/9/1 9/11/9 10/13/10
f 3/14/3 2/12/2 10/13/10 11/15/11
f 4/16/4 3/14/3 11/15/11 12/17/12
f 5/2/5 4/16/4 12/17/12 13/3/13
f 11/15/11 10/13/10 19/18/19 20/19/20
f 12/17/12 11/15/11 20/19/20 21/20/21
f 13/3/13 12/17/12 21/20/21 22/21/22
f 14/4/14 13/3/13 22/21/22 23/22/23
f 15/6/15 14/4/14 23/22/23 24/23/24
f 16/8/16 15/6/15 24/23/24 25/24/25
f 9/11/9 17/25/17 18/26/18
f 10/13/10 9/11/9 18/26/18 19/18/19
f 24/23/24 23/22/23 31/27/31 32/28/32
f 25/24/25 24/23/24 32/28/32 33/29/33
f 18/26/18 17/30/17 26/31/26
f 19/18/19 18/26/18 26/31/26 27/32/27
f 20/19/20 19/18/19 27/32/27 28/33/28
f 21/20/21 20/19/20 28/33/28 29/34/29
f 22/21/22 21/20/21 29/34/29 30/35/30
f 23/22/23 22/21/22 30/35/30 31/27/31
f 28/33/28 27/32/27 35/36/35 36/37/36
f 29/34/29 28/33/28 36/37/36 37/38/37
f 30/35/30 29/34/29 37/38/37 38/39/38
f 31/27/31 30/35/30 38/39/38 39/40/39
f 32/28/32 31/27/31 39/40/39 40/41/40
f 33/29/33 32/28/32 40/41/40 41/42/41
f 26/31/26 17/43/17 34/44/34
f 27/32/27 26/31/26 34/44/34 35/36/35
f 40/41/40 39/40/39 47/45/47 48/46/48
f 41/42/41 40/41/40 48/46/48 49/47/49
f 34/44/34 17/48/17 42/49/42
f 35/36/35 34/44/34 42/49/42 43/50/43
f 36/37/36 35/36/35 43/50/43 44/51/44
f 37/38/37 36/37/36 44/51/44 45/52/45
f 38/39/38 37/38/37 45/52/45 46/53/46
f 39/40/39 38/39/38 46/53/46 47/45/47
f 45/52/45 44/51/44 52/54/52 53/55/53
f 46/53/46 45/52/45 53/55/53 54/56/54
f 47/45/47 46/53/46 54/56/54 55/57/55
f 48/46/48 47/45/47 55/57/55 56/58/56
f 49/47/49 48/46/48 56/58/56 57/59/57
f 42/49/42 17/60/17 50/61/50
f 43/50/43 42/49/42 50/61/50 51/62/51
f 44/51/44 43/50/43 51/62/51 52/54/52
f 153/47/153 213/47/213 200/59/200 57/59/57
f 57/59/57 200/59/200 199/47/199 49/47/49
f 121/8/121 208/8/208 210/24/210 129/24/129
f 6/1/6 63/4/63 62/3/62 5/2/5
f 7/5/7 64/6/64 63/4/63 6/1/6
f 8/7/8 65/8/65 64/6/64 7/5/7
f 1/9/1 58/11/58 17/10/17
f 2/12/2 59/13/59 58/11/58 1/9/1
f 3/14/3 60/15/60 59/13/59 2/12/2
f 4/16/4 61/17/61 60/15/60 3/14/3
f 5/2/5 62/3/62 61/17/61 4/16/4
f 60/15/60 68/19/68 67/18/67 59/13/59
f 61/17/61 69/20/69 68/19/68 60/15/60
f 62/3/62 70/21/70 69/20/69 61/17/61
f 63/4/63 71/22/71 70/21/70 62/3/62
f 64/6/64 72/23/72 71/22/71 63/4/63
f 65/8/65 73/24/73 72/23/72 64/6/64
f 58/11/58 66/26/66 17/25/17
f 59/13/59 67/18/67 66/26/66 58/11/58
f 72/23/72 80/28/80 79/27/79 71/22/71
f 73/24/73 81/29/81 80/28/80 72/23/72
f 66/26/66 74/31/74 17/30/17
f 67/18/67 75/32/75 74/31/74 66/26/66
f 68/19/68 76/33/76 75/32/75 67/18/67
f 69/20/69 77/34/77 76/33/76 68/19/68
f 70/21/70 78/35/78 77/34/77 69/20/69
f 71/22/71 79/27/79 78/35/78 70/21/70
f 76/33/76 84/37/84 83/36/83 75/32/75
f 77/34/77 85/38/85 84/37/84 76/33/76
f 78/35/78 86/39/86 85/38/85 77/34/77
f 79/27/79 87/40/87 86/39/86 78/35/78
f 80/28/80 88/41/88 87/40/87 79/27/79
f 81/29/81 89/42/89 88/41/88 80/28/80
f 74/31/74 82/44/82 17/43/17
f 75/32/75 83/36/83 82/44/82 74/31/74
f 88/41/88 96/46/96 95/45/95 87/40/87
f 89/42/89 97/47/97 96/46/96 88/41/88
f 82/44/82 90/49/90 17/48/17
f 83/36/83 91/50/91 90/49/90 82/44/82
f 84/37/84 92/51/92 91/50/91 83/36/83
f 85/38/85 93/52/93 92/51/92 84/37/84
f 86/39/86 94/53/94 93/52/93 85/38/85
f 87/40/87 95/45/95 94/53/94 86/39/86
f 93/52/93 101/55/101 100/54/100 92/51/92
f 94/53/94 102/56/102 101/55/101 93/52/93
f 95/45/95 103/57/103 102/56/102 94/53/94
f 96/46/96 104/58/104 103/57/103 95/45/95
f 97/47/97 105/59/105 104/58/104 96/46/96
f 90/49/90 98/61/98 17/60/17
f 91/50/91 99/62/99 98/61/98 90/49/90
f 92/51/92 100/54/100 99/62/99 91/50/91
f 193/47/193 218/47/218 217/42/217 185/42/185
f 177/29/177 216/29/216 215/24/215 169/24/169
f 161/8/161 214/8/214 209/7/209 113/7/113
f 111/1/111 119/4/119 118/3/118 110/2/110
f 112/5/112 120/6/120 119/4/119 111/1/111
f 113/7/113 121/8/121 120/6/120 112/5/112
f 106/9/106 114/11/114 17/10/17
f 107/12/107 115/13/115 114/11/114 106/9/106
f 108/14/108 116/15/116 115/13/115 107/12/107
f 109/16/109 117/17/117 116/15/116 108/14/108
f 110/2/110 118/3/118 117/17/117 109/16/109
f 116/15/116 124/19/124 123/18/123 115/13/115
f 117/17/117 125/20/125 124/19/124 116/15/116
f 118/3/118 126/21/126 125/20/125 117/17/117
f 119/4/119 127/22/127 126/21/126 118/3/118
f 120/6/120 128/23/128 127/22/127 119/4/119
f 121/8/121 129/24/129 128/23/128 120/6/120
f 114/11/114 122/26/122 17/25/17
f 115/13/115 123/18/123 122/26/122 114/11/114
f 128/23/128 136/28/136 135/27/135 127/22/127
f 129/24/129 137/29/137 136/28/136 128/23/128
f 122/26/122 130/31/130 17/30/17
f 123/18/123 131/32/131 130/31/130 122/26/122
f 124/19/124 132/33/132 131/32/131 123/18/123
f 125/20/125 133/34/133 132/33/132 124/19/124
f 126/21/126 134/35/134 133/34/133 125/20/125
f 127/22/127 135/27/135 134/35/134 126/21/126
f 132/33/132 140/37/140 139/36/139 131/32/131
f 133/34/133 141/38/141 140/37/140 132/33/132
f 134/35/134 142/39/142 141/38/141 133/34/133
f 135/27/135 143/40/143 142/39/142 134/35/134
f 136/28/136 144/41/144 143/40/143 135/27/135
f 137/29/137 145/42/145 144/41/144 136/28/136
f 130/31/130 138/44/138 17/43/17
f 131/32/131 139/36/139 138/44/138 130/31/130
f 144/41/144 152/46/152 151/45/151 143/40/143
f 145/42/145 153/47/153 152/46/152 144/41/144
f 138/44/138 146/49/146 17/48/17
f 139/36/139 147/50/147 146/49/146 138/44/138
f 140/37/140 148/51/148 147/50/147 139/36/139
f 141/38/141 149/52/149 148/51/148 140/37/140
f 142/39/142 150/53/150 149/52/149 141/38/141
f 143/40/143 151/45/151 150/53/150 142/39/142
f 149/52/149 53/55/53 52/54/52 148/51/148
f 150/53/150 54/56/54 53/55/53 149/52/149
f 151/45/151 55/57/55 54/56/54 150/53/150
f 152/46/152 56/58/56 55/57/55 151/45/151
f 153/47/153 57/59/57 56/58/56 152/46/152
f 146/49/146 50/61/50 17/60/17
f 147/50/147 51/62/51 50/61/50 146/49/146
f 148/51/148 52/54/52 51/62/51 147/50/147
f 81/29/81 204/29/204 205/42/205 89/42/89
f 65/8/65 202/8/202 203/24/203 73/24/73
f 97/47/97 206/47/206 207/59/207 105/59/105
f 111/1/111 110/2/110 158/3/158 159/4/159
f 112/5/112 111/1/111 159/4/159 160/6/160
f 113/7/113 112/5/112 160/6/160 161/8/161
f 106/9/106 17/10/17 154/11/154
f 107/12/107 106/9/106 154/11/154 155/13/155
f 108/14/108 107/12/107 155/13/155 156/15/156
f 109/16/109 108/14/108 156/15/156 157/17/157
f 110/2/110 109/16/109 157/17/157 158/3/158
f 156/15/156 155/13/155 163/18/163 164/19/164
f 157/17/157 156/15/156 164/19/164 165/20/165
f 158/3/158 157/17/157 165/20/165 166/21/166
f 159/4/159 158/3/158 166/21/166 167/22/167
f 160/6/160 159/4/159 167/22/167 168/23/168
f 161/8/161 160/6/160 168/23/168 169/24/169
f 154/11/154 17/25/17 162/26/162
f 155/13/155 154/11/154 162/26/162 163/18/163
f 168/23/168 167/22/167 175/27/175 176/28/176
f 169/24/169 168/23/168 176/28/176 177/29/177
f 162/26/162 17/30/17 170/31/170
f 163/18/163 162/26/162 170/31/170 171/32/171
f 164/19/164 163/18/163 171/32/171 172/33/172
f 165/20/165 164/19/164 172/33/172 173/34/173
f 166/21/166 165/20/165 173/34/173 174/35/174
f 167/22/167 166/21/166 174/35/174 175/27/175
f 172/33/172 171/32/171 179/36/179 180/37/180
f 173/34/173 172/33/172 180/37/180 181/38/181
f 174/35/174 173/34/173 181/38/181 182/39/182
f 175/27/175 174/35/174 182/39/182 183/40/183
f 176/28/176 175/27/175 183/40/183 184/41/184
f 177/29/177 176/28/176 184/41/184 185/42/185
f 170/31/170 17/43/17 178/44/178
f 171/32/171 170/31/170 178/44/178 179/36/179
f 184/41/184 183/40/183 191/45/191 192/46/192
f 185/42/185 184/41/184 192/46/192 193/47/193
f 178/44/178 17/48/17 186/49/186
f 179/36/179 178/44/178 186/49/186 187/50/187
f 180/37/180 179/36/179 187/50/187 188/51/188
f 181/38/181 180/37/180 188/51/188 189/52/189
f 182/39/182 181/38/181 189/52/189 190/53/190
f 183/40/183 182/39/182 190/53/190 191/45/191
f 189/52/189 188/51/188 100/54/100 101/55/101
f 190/53/190 189/52/189 101/55/101 102/56/102
f 191/45/191 190/53/190 102/56/102 103/57/103
f 192/46/192 191/45/191 103/57/103 104/58/104
f 193/47/193 192/46/192 104/58/104 105/59/105
f 186/49/186 17/60/17 98/61/98
f 187/50/187 186/49/186 98/61/98 99/62/99
f 188/51/188 187/50/187 99/62/99 100/54/100
f 49/47/49 199/47/199 198/42/198 41/42/41
f 145/42/145 212/42/212 213/47/213 153/47/153
f 33/29/33 197/29/197 196/24/196 25/24/25
f 196/63/196 201/63/201 195/63/195 194/63/194
f 198/63/198 201/63/201 196/63/196 197/63/197
f 200/63/200 201/63/201 198/63/198 199/63/199
f 203/63/203 202/63/202 195/63/195 201/63/201
f 205/63/205 204/63/204 203/63/203 201/63/201
f 207/63/207 206/63/206 205/63/205 201/63/201
f 210/63/210 208/63/208 209/63/209 201/63/201
f 212/63/212 211/63/211 210/63/210 201/63/201
f 200/63/200 213/63/213 212/63/212 201/63/201
f 215/63/215 201/63/201 209/63/209 214/63/214
f 217/63/217 201/63/201 215/63/215 216/63/216
f 207/63/207 201/63/201 217/63/217 218/63/218
f 25/24/25 196/24/196 194/8/194 16/8/16
f 137/29/137 211/29/211 212/42/212 145/42/145
f 41/42/41 198/42/198 197/29/197 33/29/33
f 8/7/8 195/7/195 202/8/202 65/8/65
f 73/24/73 203/24/203 204/29/204 81/29/81
f 89/42/89 205/42/205 206/47/206 97/47/97
f 169/24/169 215/24/215 214/8/214 161/8/161
f 113/7/113 209/7/209 208/8/208 121/8/121
f 105/59/105 207/59/207 218/47/218 193/47/193
f 16/8/16 194/8/194 195/7/195 8/7/8
f 185/42/185 217/42/217 216/29/216 177/29/177
f 129/24/129 210/24/210 211/29/211 137/29/137
