# Blender 4.2.3 LTS
# www.blender.org
mtllib TankTurretBarrel2.mtl
o Barrel
v 0.000000 0.320472 2.090531
v -0.000000 0.320472 -2.120001
v -0.062521 0.314315 2.090531
v -0.062521 0.314314 -2.120001
v -0.122639 0.296078 2.090531
v -0.122640 0.296078 -2.120001
v -0.178045 0.266463 2.090531
v -0.178045 0.266463 -2.120001
v -0.226608 0.226608 2.090531
v -0.226608 0.226608 -2.120001
v -0.266463 0.178045 2.090531
v -0.266463 0.178045 -2.120001
v -0.296078 0.122640 2.090531
v -0.296078 0.122639 -2.120001
v -0.314314 0.062521 2.090531
v -0.314315 0.062521 -2.120001
v -0.320472 0.000000 2.090531
v -0.320472 -0.000000 -2.120001
v -0.314314 -0.062521 2.090531
v -0.314315 -0.062521 -2.120001
v -0.296078 -0.122639 2.090531
v -0.296078 -0.122640 -2.120001
v -0.266463 -0.178045 2.090531
v -0.266463 -0.178045 -2.120001
v -0.226608 -0.226608 2.090531
v -0.226608 -0.226608 -2.120001
v -0.178045 -0.266463 2.090531
v -0.178045 -0.266463 -2.120001
v -0.122639 -0.296078 2.090531
v -0.122640 -0.296078 -2.120001
v -0.062521 -0.314314 2.090531
v -0.062521 -0.314315 -2.120001
v 0.000000 -0.320472 2.090531
v -0.000000 -0.320472 -2.120001
v 0.062521 -0.314314 2.090531
v 0.062521 -0.314315 -2.120001
v 0.122640 -0.296078 2.090531
v 0.122639 -0.296078 -2.120001
v 0.178045 -0.266463 2.090531
v 0.178045 -0.266463 -2.120001
v 0.226608 -0.226608 2.090531
v 0.226608 -0.226608 -2.120001
v 0.266463 -0.178045 2.090531
v 0.266463 -0.178045 -2.120001
v 0.296078 -0.122639 2.090531
v 0.296078 -0.122640 -2.120001
v 0.314315 -0.062521 2.090531
v 0.314314 -0.062521 -2.120001
v 0.320472 0.000000 2.090531
v 0.320472 -0.000000 -2.120001
v 0.314315 0.062521 2.090531
v 0.314314 0.062521 -2.120001
v 0.296078 0.122640 2.090531
v 0.296078 0.122639 -2.120001
v 0.266463 0.178045 2.090531
v 0.266463 0.178045 -2.120001
v 0.226608 0.226608 2.090531
v 0.226608 0.226608 -2.120001
v 0.178045 0.266463 2.090531
v 0.178045 0.266463 -2.120001
v 0.122640 0.296078 2.090531
v 0.122639 0.296078 -2.120001
v 0.062521 0.314315 2.090531
v 0.062521 0.314314 -2.120001
v 0.000000 0.390000 1.263862
v -0.076085 0.382507 1.263862
v -0.149247 0.360313 1.263862
v -0.216672 0.324273 1.263862
v -0.275772 0.275772 1.263862
v -0.324273 0.216673 1.263862
v -0.360313 0.149247 1.263862
v -0.382506 0.076085 1.263862
v -0.390000 0.000000 1.263862
v -0.382506 -0.076085 1.263862
v -0.360313 -0.149247 1.263862
v -0.324273 -0.216672 1.263862
v -0.275772 -0.275772 1.263862
v -0.216672 -0.324273 1.263862
v -0.149247 -0.360313 1.263862
v -0.076085 -0.382506 1.263862
v 0.000000 -0.390000 1.263862
v 0.076085 -0.382506 1.263862
v 0.149247 -0.360313 1.263862
v 0.216673 -0.324273 1.263862
v 0.275772 -0.275772 1.263862
v 0.324273 -0.216672 1.263862
v 0.360313 -0.149247 1.263862
v 0.382507 -0.076085 1.263862
v 0.390000 0.000000 1.263862
v 0.382507 0.076085 1.263862
v 0.360313 0.149247 1.263862
v 0.324273 0.216673 1.263862
v 0.275772 0.275772 1.263862
v 0.216673 0.324273 1.263862
v 0.149247 0.360313 1.263862
v 0.076085 0.382507 1.263862
v 0.000000 0.491687 2.120001
v -0.095923 0.482239 2.120001
v -0.095923 0.482239 1.263862
v -0.188160 0.454259 2.120001
v -0.188160 0.454259 1.263862
v -0.273166 0.408823 2.120001
v -0.273166 0.408823 1.263862
v -0.347675 0.347675 2.120001
v -0.347675 0.347675 1.263862
v -0.408822 0.273167 2.120001
v -0.408822 0.273167 1.263862
v -0.454259 0.188160 2.120001
v -0.454259 0.188160 1.263862
v -0.482239 0.095923 2.120001
v -0.482239 0.095923 1.263862
v -0.491687 0.000000 2.120001
v -0.491687 0.000000 1.263862
v -0.482239 -0.095923 2.120001
v -0.482239 -0.095923 1.263862
v -0.454259 -0.188160 2.120001
v -0.454259 -0.188160 1.263862
v -0.408822 -0.273166 2.120001
v -0.408822 -0.273166 1.263862
v -0.347675 -0.347675 2.120001
v -0.347675 -0.347675 1.263862
v -0.273166 -0.408823 2.120001
v -0.273166 -0.408823 1.263862
v -0.188160 -0.454259 2.120001
v -0.188160 -0.454259 1.263862
v -0.095923 -0.482239 2.120001
v -0.095923 -0.482239 1.263862
v 0.000000 -0.491687 2.120001
v 0.000000 -0.491687 1.263862
v 0.095924 -0.482239 2.120001
v 0.095923 -0.482239 1.263862
v 0.188161 -0.454259 2.120001
v 0.188160 -0.454259 1.263862
v 0.273167 -0.408823 2.120001
v 0.273167 -0.408823 1.263862
v 0.347675 -0.347675 2.120001
v 0.347675 -0.347675 1.263862
v 0.408823 -0.273166 2.120001
v 0.408823 -0.273166 1.263862
v 0.454259 -0.188160 2.120001
v 0.454259 -0.188160 1.263862
v 0.482239 -0.095923 2.120001
v 0.482239 -0.095923 1.263862
v 0.491687 0.000000 2.120001
v 0.491687 0.000000 1.263862
v 0.482239 0.095923 2.120001
v 0.482239 0.095923 1.263862
v 0.454259 0.188160 2.120001
v 0.454259 0.188160 1.263862
v 0.408823 0.273167 2.120001
v 0.408823 0.273167 1.263862
v 0.347675 0.347675 2.120001
v 0.347675 0.347675 1.263862
v 0.273167 0.408823 2.120001
v 0.273167 0.408823 1.263862
v 0.188161 0.454259 2.120001
v 0.188160 0.454259 1.263862
v 0.095924 0.482239 2.120001
v 0.095923 0.482239 1.263862
v 0.000000 0.491687 1.263862
v 0.000000 0.320472 1.364234
v -0.062521 0.314315 1.364234
v -0.122639 0.296078 1.364234
v -0.178045 0.266463 1.364234
v -0.226608 0.226608 1.364234
v -0.266463 0.178045 1.364234
v -0.296078 0.122639 1.364234
v -0.314314 0.062521 1.364234
v -0.320472 0.000000 1.364234
v -0.314314 -0.062521 1.364234
v -0.296078 -0.122639 1.364234
v -0.266463 -0.178045 1.364234
v -0.226608 -0.226608 1.364234
v -0.178045 -0.266463 1.364234
v -0.122639 -0.296078 1.364234
v -0.062521 -0.314314 1.364234
v 0.000000 -0.320472 1.364234
v 0.062521 -0.314314 1.364234
v 0.122640 -0.296078 1.364234
v 0.178045 -0.266463 1.364234
v 0.226608 -0.226608 1.364234
v 0.266463 -0.178045 1.364234
v 0.296078 -0.122639 1.364234
v 0.314314 -0.062521 1.364234
v 0.320472 0.000000 1.364234
v 0.314314 0.062521 1.364234
v 0.296078 0.122639 1.364234
v 0.266463 0.178045 1.364234
v 0.226608 0.226608 1.364234
v 0.178045 0.266463 1.364234
v 0.122640 0.296078 1.364234
v 0.062521 0.314315 1.364234
v -0.155400 0.375169 2.120001
v 0.287142 0.287142 2.120001
v 0.225606 -0.337643 2.120001
v -0.375168 -0.155400 2.120001
v 0.337643 0.225606 2.120001
v -0.079222 0.398277 2.120001
v 0.000000 0.406080 2.120001
v 0.155400 -0.375168 2.120001
v -0.398277 -0.079222 2.120001
v 0.375169 0.155400 2.120001
v 0.079222 -0.398277 2.120001
v 0.000000 -0.406079 2.120001
v -0.406079 0.000000 2.120001
v -0.398277 0.079222 2.120001
v 0.398277 0.079222 2.120001
v 0.406080 0.000000 2.120001
v -0.337643 -0.225606 2.120001
v 0.287142 -0.287141 2.120001
v 0.225606 0.337643 2.120001
v -0.225606 0.337643 2.120001
v -0.287141 -0.287141 2.120001
v 0.337643 -0.225606 2.120001
v 0.155400 0.375169 2.120001
v -0.287141 0.287142 2.120001
v -0.225606 -0.337643 2.120001
v 0.375169 -0.155400 2.120001
v 0.079222 0.398277 2.120001
v -0.337643 0.225606 2.120001
v -0.155400 -0.375168 2.120001
v 0.398277 -0.079222 2.120001
v -0.375168 0.155400 2.120001
v -0.079222 -0.398277 2.120001
vn -0.0000 -0.8011 0.5985
vn -0.0000 0.7208 -0.6931
vn 0.1563 -0.7857 0.5985
vn -0.1406 0.7070 -0.6931
vn 0.3066 -0.7401 0.5985
vn -0.2758 0.6659 -0.6931
vn 0.4451 -0.6661 0.5985
vn -0.4005 0.5993 -0.6931
vn 0.5665 -0.5665 0.5985
vn -0.5097 0.5097 -0.6931
vn 0.6661 -0.4451 0.5985
vn -0.5993 0.4005 -0.6931
vn 0.7401 -0.3066 0.5985
vn -0.6659 0.2758 -0.6931
vn 0.7857 -0.1563 0.5985
vn -0.7070 0.1406 -0.6931
vn 0.8011 -0.0000 0.5985
vn -0.7208 -0.0000 -0.6931
vn 0.7857 0.1563 0.5985
vn -0.7070 -0.1406 -0.6931
vn 0.7401 0.3066 0.5985
vn -0.6659 -0.2758 -0.6931
vn 0.6661 0.4451 0.5985
vn -0.5993 -0.4005 -0.6931
vn 0.5665 0.5665 0.5985
vn -0.5097 -0.5097 -0.6931
vn 0.4451 0.6661 0.5985
vn -0.4005 -0.5993 -0.6931
vn 0.3066 0.7401 0.5985
vn -0.2758 -0.6659 -0.6931
vn 0.1563 0.7857 0.5985
vn -0.1406 -0.7070 -0.6931
vn -0.0000 0.8011 0.5985
vn -0.0000 -0.7208 -0.6931
vn -0.1563 0.7857 0.5985
vn 0.1406 -0.7070 -0.6931
vn -0.3066 0.7401 0.5985
vn 0.2758 -0.6659 -0.6931
vn -0.4451 0.6661 0.5985
vn 0.4005 -0.5993 -0.6931
vn -0.5665 0.5665 0.5985
vn 0.5097 -0.5097 -0.6931
vn -0.6661 0.4451 0.5985
vn 0.5993 -0.4005 -0.6931
vn -0.7401 0.3066 0.5985
vn 0.6659 -0.2758 -0.6931
vn -0.7857 0.1563 0.5985
vn 0.7070 -0.1406 -0.6931
vn -0.8011 -0.0000 0.5985
vn 0.7208 -0.0000 -0.6931
vn -0.7857 -0.1563 0.5985
vn 0.7070 0.1406 -0.6931
vn -0.7401 -0.3066 0.5985
vn 0.6659 0.2758 -0.6931
vn -0.6661 -0.4451 0.5985
vn 0.5993 0.4005 -0.6931
vn -0.5665 -0.5665 0.5985
vn 0.5097 0.5097 -0.6931
vn -0.4451 -0.6661 0.5985
vn 0.4005 0.5993 -0.6931
vn -0.3066 -0.7401 0.5985
vn 0.2758 0.6659 -0.6931
vn -0.1563 -0.7857 0.5985
vn 0.1406 0.7070 -0.6931
vn -0.0000 0.6761 -0.7368
vn -0.1319 0.6631 -0.7368
vn -0.2587 0.6246 -0.7368
vn -0.3756 0.5622 -0.7368
vn -0.4781 0.4781 -0.7368
vn -0.5622 0.3756 -0.7368
vn -0.6246 0.2587 -0.7368
vn -0.6631 0.1319 -0.7368
vn -0.6761 -0.0000 -0.7368
vn -0.6631 -0.1319 -0.7368
vn -0.6246 -0.2587 -0.7368
vn -0.5622 -0.3756 -0.7368
vn -0.4781 -0.4781 -0.7368
vn -0.3756 -0.5622 -0.7368
vn -0.2587 -0.6246 -0.7368
vn -0.1319 -0.6631 -0.7368
vn -0.0000 -0.6761 -0.7368
vn 0.1319 -0.6631 -0.7368
vn 0.2587 -0.6246 -0.7368
vn 0.3756 -0.5622 -0.7368
vn 0.4781 -0.4781 -0.7368
vn 0.5622 -0.3756 -0.7368
vn 0.6246 -0.2587 -0.7368
vn 0.6631 -0.1319 -0.7368
vn 0.6761 -0.0000 -0.7368
vn 0.6631 0.1319 -0.7368
vn 0.6246 0.2587 -0.7368
vn 0.5622 0.3756 -0.7368
vn 0.4781 0.4781 -0.7368
vn 0.3756 0.5622 -0.7368
vn 0.2587 0.6246 -0.7368
vn 0.1319 0.6631 -0.7368
vn -0.0000 0.7279 0.6857
vn -0.1420 0.7139 0.6857
vn -0.1420 0.7139 -0.6857
vn -0.2785 0.6725 0.6857
vn -0.2785 0.6725 -0.6857
vn -0.4044 0.6052 0.6857
vn -0.4044 0.6052 -0.6857
vn -0.5147 0.5147 0.6857
vn -0.5147 0.5147 -0.6857
vn -0.6052 0.4044 0.6857
vn -0.6052 0.4044 -0.6857
vn -0.6725 0.2785 0.6857
vn -0.6725 0.2785 -0.6857
vn -0.7139 0.1420 0.6857
vn -0.7139 0.1420 -0.6857
vn -0.7279 -0.0000 0.6857
vn -0.7279 -0.0000 -0.6857
vn -0.7139 -0.1420 0.6857
vn -0.7139 -0.1420 -0.6857
vn -0.6725 -0.2785 0.6857
vn -0.6725 -0.2785 -0.6857
vn -0.6052 -0.4044 0.6857
vn -0.6052 -0.4044 -0.6857
vn -0.5147 -0.5147 0.6857
vn -0.5147 -0.5147 -0.6857
vn -0.4044 -0.6052 0.6857
vn -0.4044 -0.6052 -0.6857
vn -0.2785 -0.6725 0.6857
vn -0.2785 -0.6725 -0.6857
vn -0.1420 -0.7139 0.6857
vn -0.1420 -0.7139 -0.6857
vn -0.0000 -0.7279 0.6857
vn -0.0000 -0.7279 -0.6857
vn 0.1420 -0.7139 0.6857
vn 0.1420 -0.7139 -0.6857
vn 0.2785 -0.6725 0.6857
vn 0.2785 -0.6725 -0.6857
vn 0.4044 -0.6052 0.6857
vn 0.4044 -0.6052 -0.6857
vn 0.5147 -0.5147 0.6857
vn 0.5147 -0.5147 -0.6857
vn 0.6052 -0.4044 0.6857
vn 0.6052 -0.4044 -0.6857
vn 0.6725 -0.2785 0.6857
vn 0.6725 -0.2785 -0.6857
vn 0.7139 -0.1420 0.6857
vn 0.7139 -0.1420 -0.6857
vn 0.7279 -0.0000 0.6857
vn 0.7279 -0.0000 -0.6857
vn 0.7139 0.1420 0.6857
vn 0.7139 0.1420 -0.6857
vn 0.6725 0.2785 0.6857
vn 0.6725 0.2785 -0.6857
vn 0.6052 0.4044 0.6857
vn 0.6052 0.4044 -0.6857
vn 0.5147 0.5147 0.6857
vn 0.5147 0.5147 -0.6857
vn 0.4044 0.6052 0.6857
vn 0.4044 0.6052 -0.6857
vn 0.2785 0.6725 0.6857
vn 0.2785 0.6725 -0.6857
vn 0.1420 0.7139 0.6857
vn 0.1420 0.7139 -0.6857
vn -0.0000 0.7279 -0.6857
vn 0.0593 -0.1432 0.9879
vn -0.1096 -0.1096 0.9879
vn -0.0861 0.1288 0.9879
vn 0.1432 0.0593 0.9879
vn -0.1288 -0.0861 0.9879
vn 0.0302 -0.1520 0.9879
vn -0.0000 -0.1550 0.9879
vn -0.0593 0.1432 0.9879
vn 0.1520 0.0302 0.9879
vn -0.1432 -0.0593 0.9879
vn -0.0302 0.1520 0.9879
vn -0.0000 0.1550 0.9879
vn 0.1550 -0.0000 0.9879
vn 0.1520 -0.0302 0.9879
vn -0.1520 -0.0302 0.9879
vn -0.1550 -0.0000 0.9879
vn 0.1288 0.0861 0.9879
vn -0.1096 0.1096 0.9879
vn -0.0861 -0.1288 0.9879
vn 0.0861 -0.1288 0.9879
vn 0.1096 0.1096 0.9879
vn -0.1288 0.0861 0.9879
vn -0.0593 -0.1432 0.9879
vn 0.1096 -0.1096 0.9879
vn 0.0861 0.1288 0.9879
vn -0.1432 0.0593 0.9879
vn -0.0302 -0.1520 0.9879
vn 0.1288 -0.0861 0.9879
vn 0.0593 0.1432 0.9879
vn -0.1520 0.0302 0.9879
vn 0.1432 -0.0593 0.9879
vn 0.0302 0.1520 0.9879
vt 1.000000 0.554738
vt 1.000000 1.000000
vt 0.968750 1.000000
vt 0.968750 0.554738
vt 0.937500 1.000000
vt 0.937500 0.554738
vt 0.906250 1.000000
vt 0.906250 0.554738
vt 0.875000 1.000000
vt 0.875000 0.554738
vt 0.843750 1.000000
vt 0.843750 0.554738
vt 0.812500 1.000000
vt 0.812500 0.554738
vt 0.781250 1.000000
vt 0.781250 0.554738
vt 0.750000 1.000000
vt 0.750000 0.554738
vt 0.718750 1.000000
vt 0.718750 0.554738
vt 0.687500 1.000000
vt 0.687500 0.554738
vt 0.656250 1.000000
vt 0.656250 0.554738
vt 0.625000 1.000000
vt 0.625000 0.554738
vt 0.593750 1.000000
vt 0.593750 0.554738
vt 0.562500 1.000000
vt 0.562500 0.554738
vt 0.531250 1.000000
vt 0.531250 0.554738
vt 0.500000 1.000000
vt 0.500000 0.554738
vt 0.468750 1.000000
vt 0.468750 0.554738
vt 0.437500 1.000000
vt 0.437500 0.554738
vt 0.406250 1.000000
vt 0.406250 0.554738
vt 0.375000 1.000000
vt 0.375000 0.554738
vt 0.343750 1.000000
vt 0.343750 0.554738
vt 0.312500 1.000000
vt 0.312500 0.554738
vt 0.281250 1.000000
vt 0.281250 0.554738
vt 0.250000 1.000000
vt 0.250000 0.554738
vt 0.218750 1.000000
vt 0.218750 0.554738
vt 0.187500 1.000000
vt 0.187500 0.554738
vt 0.156250 1.000000
vt 0.156250 0.554738
vt 0.125000 1.000000
vt 0.125000 0.554738
vt 0.093750 1.000000
vt 0.093750 0.554738
vt 0.062500 1.000000
vt 0.062500 0.554738
vt 0.296822 0.485388
vt 0.250000 0.490000
vt 0.203178 0.485388
vt 0.158156 0.471731
vt 0.116663 0.449553
vt 0.080294 0.419706
vt 0.050447 0.383337
vt 0.028269 0.341844
vt 0.014612 0.296822
vt 0.010000 0.250000
vt 0.014612 0.203178
vt 0.028269 0.158156
vt 0.050447 0.116663
vt 0.080294 0.080294
vt 0.116663 0.050447
vt 0.158156 0.028269
vt 0.203178 0.014612
vt 0.250000 0.010000
vt 0.296822 0.014612
vt 0.341844 0.028269
vt 0.383337 0.050447
vt 0.419706 0.080294
vt 0.449553 0.116663
vt 0.471731 0.158156
vt 0.485388 0.203178
vt 0.490000 0.250000
vt 0.485388 0.296822
vt 0.471731 0.341844
vt 0.449553 0.383337
vt 0.419706 0.419706
vt 0.383337 0.449553
vt 0.341844 0.471731
vt 0.031250 1.000000
vt 0.031250 0.554738
vt 0.000000 1.000000
vt 0.000000 0.554738
vt 0.510000 0.250000
vt 0.514612 0.296822
vt 0.580294 0.080294
vt 0.616663 0.050447
vt 0.949553 0.116663
vt 0.971731 0.158156
vt 0.841844 0.471731
vt 0.796822 0.485388
vt 0.580294 0.419706
vt 0.550447 0.383337
vt 0.658156 0.028269
vt 0.985388 0.203178
vt 0.528269 0.341844
vt 0.750000 0.490000
vt 0.703178 0.014612
vt 0.990000 0.250000
vt 0.750000 0.010000
vt 0.985388 0.296822
vt 0.031250 0.500000
vt 0.000000 0.500000
vt 0.062500 0.500000
vt 0.093750 0.500000
vt 0.125000 0.500000
vt 0.156250 0.500000
vt 0.187500 0.500000
vt 0.218750 0.500000
vt 0.250000 0.500000
vt 0.281250 0.500000
vt 0.312500 0.500000
vt 0.343750 0.500000
vt 0.375000 0.500000
vt 0.406250 0.500000
vt 0.437500 0.500000
vt 0.468750 0.500000
vt 0.500000 0.500000
vt 0.531250 0.500000
vt 0.562500 0.500000
vt 0.593750 0.500000
vt 0.625000 0.500000
vt 0.656250 0.500000
vt 0.687500 0.500000
vt 0.718750 0.500000
vt 0.750000 0.500000
vt 0.781250 0.500000
vt 0.812500 0.500000
vt 0.843750 0.500000
vt 0.875000 0.500000
vt 0.906250 0.500000
vt 0.937500 0.500000
vt 0.968750 0.500000
vt 1.000000 0.500000
vt 0.616663 0.449553
vt 0.883337 0.449553
vt 0.919706 0.080294
vt 0.550447 0.116663
vt 0.658156 0.471731
vt 0.919706 0.419706
vt 0.883337 0.050447
vt 0.528269 0.158156
vt 0.703178 0.485388
vt 0.949553 0.383337
vt 0.841844 0.028269
vt 0.514612 0.203178
vt 0.971731 0.341844
vt 0.796822 0.014612
s 1
usemtl Tank_Body
f 65/1/65 2/2/2 4/3/4 66/4/66
f 66/4/66 4/3/4 6/5/6 67/6/67
f 67/6/67 6/5/6 8/7/8 68/8/68
f 68/8/68 8/7/8 10/9/10 69/10/69
f 69/10/69 10/9/10 12/11/12 70/12/70
f 70/12/70 12/11/12 14/13/14 71/14/71
f 71/14/71 14/13/14 16/15/16 72/16/72
f 72/16/72 16/15/16 18/17/18 73/18/73
f 73/18/73 18/17/18 20/19/20 74/20/74
f 74/20/74 20/19/20 22/21/22 75/22/75
f 75/22/75 22/21/22 24/23/24 76/24/76
f 76/24/76 24/23/24 26/25/26 77/26/77
f 77/26/77 26/25/26 28/27/28 78/28/78
f 78/28/78 28/27/28 30/29/30 79/30/79
f 79/30/79 30/29/30 32/31/32 80/32/80
f 80/32/80 32/31/32 34/33/34 81/34/81
f 81/34/81 34/33/34 36/35/36 82/36/82
f 82/36/82 36/35/36 38/37/38 83/38/83
f 83/38/83 38/37/38 40/39/40 84/40/84
f 84/40/84 40/39/40 42/41/42 85/42/85
f 85/42/85 42/41/42 44/43/44 86/44/86
f 86/44/86 44/43/44 46/45/46 87/46/87
f 87/46/87 46/45/46 48/47/48 88/48/88
f 88/48/88 48/47/48 50/49/50 89/50/89
f 89/50/89 50/49/50 52/51/52 90/52/90
f 90/52/90 52/51/52 54/53/54 91/54/91
f 91/54/91 54/53/54 56/55/56 92/56/92
f 92/56/92 56/55/56 58/57/58 93/58/93
f 93/58/93 58/57/58 60/59/60 94/60/94
f 94/60/94 60/59/60 62/61/62 95/62/95
f 4/63/4 2/64/2 64/65/64 62/66/62 60/67/60 58/68/58 56/69/56 54/70/54 52/71/52 50/72/50 48/73/48 46/74/46 44/75/44 42/76/42 40/77/40 38/78/38 36/79/36 34/80/34 32/81/32 30/82/30 28/83/28 26/84/26 24/85/24 22/86/22 20/87/20 18/88/18 16/89/16 14/90/14 12/91/12 10/92/10 8/93/8 6/94/6
f 95/62/95 62/61/62 64/95/64 96/96/96
f 96/96/96 64/95/64 2/97/2 65/98/65
f 87/46/87 88/48/88 143/48/143 141/46/141
f 88/48/88 89/50/89 145/50/145 143/48/143
f 89/50/89 90/52/90 147/52/147 145/50/145
f 90/52/90 91/54/91 149/54/149 147/52/147
f 91/54/91 92/56/92 151/56/151 149/54/149
f 65/1/65 66/4/66 99/4/99 160/1/160
f 92/56/92 93/58/93 153/58/153 151/56/151
f 66/4/66 67/6/67 101/6/101 99/4/99
f 93/58/93 94/60/94 155/60/155 153/58/153
f 67/6/67 68/8/68 103/8/103 101/6/101
f 94/60/94 95/62/95 157/62/157 155/60/155
f 68/8/68 69/10/69 105/10/105 103/8/103
f 95/62/95 96/96/96 159/96/159 157/62/157
f 69/10/69 70/12/70 107/12/107 105/10/105
f 96/96/96 65/98/65 160/98/160 159/96/159
f 70/12/70 71/14/71 109/14/109 107/12/107
f 71/14/71 72/16/72 111/16/111 109/14/109
f 72/16/72 73/18/73 113/18/113 111/16/111
f 158/117/158 159/96/159 160/98/160 97/118/97
f 156/119/156 157/62/157 159/96/159 158/117/158
f 154/120/154 155/60/155 157/62/157 156/119/156
f 152/121/152 153/58/153 155/60/155 154/120/154
f 150/122/150 151/56/151 153/58/153 152/121/152
f 148/123/148 149/54/149 151/56/151 150/122/150
f 146/124/146 147/52/147 149/54/149 148/123/148
f 144/125/144 145/50/145 147/52/147 146/124/146
f 142/126/142 143/48/143 145/50/145 144/125/144
f 140/127/140 141/46/141 143/48/143 142/126/142
f 138/128/138 139/44/139 141/46/141 140/127/140
f 136/129/136 137/42/137 139/44/139 138/128/138
f 134/130/134 135/40/135 137/42/137 136/129/136
f 132/131/132 133/38/133 135/40/135 134/130/134
f 130/132/130 131/36/131 133/38/133 132/131/132
f 128/133/128 129/34/129 131/36/131 130/132/130
f 126/134/126 127/32/127 129/34/129 128/133/128
f 124/135/124 125/30/125 127/32/127 126/134/126
f 122/136/122 123/28/123 125/30/125 124/135/124
f 120/137/120 121/26/121 123/28/123 122/136/122
f 118/138/118 119/24/119 121/26/121 120/137/120
f 116/139/116 117/22/117 119/24/119 118/138/118
f 114/140/114 115/20/115 117/22/117 116/139/116
f 112/141/112 113/18/113 115/20/115 114/140/114
f 110/142/110 111/16/111 113/18/113 112/141/112
f 108/143/108 109/14/109 111/16/111 110/142/110
f 106/144/106 107/12/107 109/14/109 108/143/108
f 104/145/104 105/10/105 107/12/107 106/144/106
f 102/146/102 103/8/103 105/10/105 104/145/104
f 100/147/100 101/6/101 103/8/103 102/146/102
f 98/148/98 99/4/99 101/6/101 100/147/100
f 97/149/97 160/1/160 99/4/99 98/148/98
f 86/44/86 87/46/87 141/46/141 139/44/139
f 85/42/85 86/44/86 139/44/139 137/42/137
f 84/40/84 85/42/85 137/42/137 135/40/135
f 83/38/83 84/40/84 135/40/135 133/38/133
f 82/36/82 83/38/83 133/38/133 131/36/131
f 81/34/81 82/36/82 131/36/131 129/34/129
f 80/32/80 81/34/81 129/34/129 127/32/127
f 79/30/79 80/32/80 127/32/127 125/30/125
f 78/28/78 79/30/79 125/30/125 123/28/123
f 77/26/77 78/28/78 123/28/123 121/26/121
f 76/24/76 77/26/77 121/26/121 119/24/119
f 75/22/75 76/24/76 119/24/119 117/22/117
f 74/20/74 75/22/75 117/22/117 115/20/115
f 73/18/73 74/20/74 115/20/115 113/18/113
usemtl Tank2
f 49/99/49 51/100/51 186/100/114 185/99/112
f 210/101/178 195/102/163 134/102/134 136/101/136
f 209/103/177 196/104/164 116/104/116 118/103/118
f 193/105/161 198/106/166 98/106/98 100/105/100
f 194/107/162 197/108/165 150/108/150 152/107/152
f 195/102/163 200/109/168 132/109/132 134/102/134
f 196/104/164 201/110/169 114/110/114 116/104/116
f 197/108/165 202/111/170 148/111/148 150/108/150
f 198/106/166 199/112/167 97/112/97 98/106/98
f 200/109/168 203/113/171 130/113/130 132/109/132
f 201/110/169 205/114/173 112/114/112 114/110/114
f 202/111/170 207/100/175 146/100/146 148/111/148
f 203/113/171 204/115/172 128/115/128 130/113/130
f 205/114/173 206/116/174 110/116/110 112/114/112
f 207/100/175 208/99/176 144/99/144 146/100/146
f 211/150/179 194/107/162 152/107/152 154/150/154
f 212/151/180 193/105/161 100/105/100 102/151/102
f 213/152/181 209/103/177 118/103/118 120/152/120
f 214/153/182 210/101/178 136/101/136 138/153/138
f 215/154/183 211/150/179 154/150/154 156/154/156
f 216/155/184 212/151/180 102/151/102 104/155/104
f 217/156/185 213/152/181 120/152/120 122/156/122
f 218/157/186 214/153/182 138/153/138 140/157/140
f 219/158/187 215/154/183 156/154/156 158/158/158
f 220/159/188 216/155/184 104/155/104 106/159/106
f 221/160/189 217/156/185 122/156/122 124/160/124
f 222/161/190 218/157/186 140/157/140 142/161/142
f 199/112/167 219/158/187 158/158/158 97/112/97
f 223/162/191 220/159/188 106/159/106 108/162/108
f 224/163/192 221/160/189 124/160/124 126/163/126
f 208/99/176 222/161/190 142/161/142 144/99/144
f 206/116/174 223/162/191 108/162/108 110/116/110
f 204/115/172 224/163/192 126/163/126 128/115/128
f 161/112/128 162/106/130 163/105/132 164/151/134 165/155/136 166/159/138 167/162/140 168/116/142 169/114/144 170/110/146 171/104/148 172/103/150 173/152/152 174/156/154 175/160/156 176/163/158 177/115/97 178/113/98 179/109/100 180/102/102 181/101/104 182/153/106 183/157/108 184/161/110 185/99/112 186/100/114 187/111/116 188/108/118 189/107/120 190/150/122 191/154/124 192/158/126
f 5/105/5 7/151/7 164/151/134 163/105/132
f 23/103/23 25/152/25 173/152/152 172/103/150
f 41/101/41 43/153/43 182/153/106 181/101/104
f 59/150/59 61/154/61 191/154/124 190/150/122
f 15/116/15 17/114/17 169/114/144 168/116/142
f 33/115/33 35/113/35 178/113/98 177/115/97
f 51/100/51 53/111/53 187/111/116 186/100/114
f 7/151/7 9/155/9 165/155/136 164/151/134
f 25/152/25 27/156/27 174/156/154 173/152/152
f 43/153/43 45/157/45 183/157/108 182/153/106
f 61/154/61 63/158/63 192/158/126 191/154/124
f 17/114/17 19/110/19 170/110/146 169/114/144
f 35/113/35 37/109/37 179/109/100 178/113/98
f 53/111/53 55/108/55 188/108/118 187/111/116
f 9/155/9 11/159/11 166/159/138 165/155/136
f 27/156/27 29/160/29 175/160/156 174/156/154
f 45/157/45 47/161/47 184/161/110 183/157/108
f 1/112/1 3/106/3 162/106/130 161/112/128
f 63/158/63 1/112/1 161/112/128 192/158/126
f 19/110/19 21/104/21 171/104/148 170/110/146
f 37/109/37 39/102/39 180/102/102 179/109/100
f 55/108/55 57/107/57 189/107/120 188/108/118
f 11/159/11 13/162/13 167/162/140 166/159/138
f 29/160/29 31/163/31 176/163/158 175/160/156
f 47/161/47 49/99/49 185/99/112 184/161/110
f 3/106/3 5/105/5 163/105/132 162/106/130
f 21/104/21 23/103/23 172/103/150 171/104/148
f 39/102/39 41/101/41 181/101/104 180/102/102
f 57/107/57 59/150/59 190/150/122 189/107/120
f 13/162/13 15/116/15 168/116/142 167/162/140
f 31/163/31 33/115/33 177/115/97 176/163/158
f 33/115/33 31/163/31 224/163/192 204/115/172
f 15/116/15 13/162/13 223/162/191 206/116/174
f 49/99/49 47/161/47 222/161/190 208/99/176
f 31/163/31 29/160/29 221/160/189 224/163/192
f 13/162/13 11/159/11 220/159/188 223/162/191
f 1/112/1 63/158/63 219/158/187 199/112/167
f 47/161/47 45/157/45 218/157/186 222/161/190
f 29/160/29 27/156/27 217/156/185 221/160/189
f 11/159/11 9/155/9 216/155/184 220/159/188
f 63/158/63 61/154/61 215/154/183 219/158/187
f 45/157/45 43/153/43 214/153/182 218/157/186
f 27/156/27 25/152/25 213/152/181 217/156/185
f 9/155/9 7/151/7 212/151/180 216/155/184
f 61/154/61 59/150/59 211/150/179 215/154/183
f 43/153/43 41/101/41 210/101/178 214/153/182
f 25/152/25 23/103/23 209/103/177 213/152/181
f 7/151/7 5/105/5 193/105/161 212/151/180
f 59/150/59 57/107/57 194/107/162 211/150/179
f 51/100/51 49/99/49 208/99/176 207/100/175
f 17/114/17 15/116/15 206/116/174 205/114/173
f 35/113/35 33/115/33 204/115/172 203/113/171
f 53/111/53 51/100/51 207/100/175 202/111/170
f 19/110/19 17/114/17 205/114/173 201/110/169
f 37/109/37 35/113/35 203/113/171 200/109/168
f 3/106/3 1/112/1 199/112/167 198/106/166
f 55/108/55 53/111/53 202/111/170 197/108/165
f 21/104/21 19/110/19 201/110/169 196/104/164
f 39/102/39 37/109/37 200/109/168 195/102/163
f 57/107/57 55/108/55 197/108/165 194/107/162
f 5/105/5 3/106/3 198/106/166 193/105/161
f 23/103/23 21/104/21 196/104/164 209/103/177
f 41/101/41 39/102/39 195/102/163 210/101/178
